<?xml version="1.0" encoding="utf-8"?>
<!-- Generator: Adobe Illustrator 17.0.0, SVG Export Plug-In . SVG Version: 6.00 Build 0)  -->
<!DOCTYPE svg PUBLIC "-//W3C//DTD SVG 1.1//EN" "http://www.w3.org/Graphics/SVG/1.1/DTD/svg11.dtd">
<svg version="1.1" id="Capa_1" xmlns="http://www.w3.org/2000/svg" xmlns:xlink="http://www.w3.org/1999/xlink" x="0px" y="0px"
	 width="30px" height="29.999px" viewBox="0 0 30 29.999" enable-background="new 0 0 30 29.999" xml:space="preserve">
<g>
	<g>
		<path fill="#333333" d="M15,29.999c-2.625,0-5.201-0.695-7.481-2.013l-5.844,2.013l1.201-6.189C0.992,21.23,0,18.195,0,15
			C0,6.729,6.729,0,15,0c8.271,0,15,6.729,15,15C30,23.27,23.271,29.999,15,29.999z M7.788,25.533l0.452,0.283
			c2.037,1.277,4.375,1.952,6.76,1.952c7.041,0,12.768-5.728,12.768-12.769c0-7.04-5.728-12.768-12.768-12.768
			C7.959,2.232,2.232,7.959,2.232,15c0,2.864,0.938,5.579,2.712,7.848l0.313,0.401l-0.656,3.382L7.788,25.533z"/>
	</g>
	<path fill="#333333" d="M7.428,9.237c0,0,0.88-1.539,1.597-1.627c0.718-0.088,1.641-0.088,1.89,0.381
		c0.249,0.468,1.363,3.194,1.363,3.194s0.19,0.469-0.103,0.923c-0.293,0.454-0.952,1.113-0.952,1.113s-0.366,0.469,0,0.967
		c0.366,0.498,0.934,1.414,2.11,2.589c1.173,1.175,3.428,2.012,3.428,2.012s0.323,0.044,0.528-0.161
		c0.205-0.205,1.319-1.597,1.319-1.597s0.358-0.461,0.953-0.19c0.593,0.271,3.164,1.552,3.164,1.552s0.301,0.11,0.301,0.564
		c0,0.455-0.184,1.566-0.56,1.941c-0.376,0.376-1.475,1.534-3.125,1.534c-1.651,0-5.583-1.343-7.678-3.438
		c-2.095-2.095-3.956-4.22-4.395-6.154C6.827,10.907,6.886,10.033,7.428,9.237z"/>
</g>
</svg>
