<?xml version="1.0" encoding="UTF-8" standalone="no"?>
<!DOCTYPE svg PUBLIC "-//W3C//DTD SVG 1.1//EN" "http://www.w3.org/Graphics/SVG/1.1/DTD/svg11.dtd">
<svg width="100%" height="100%" viewBox="0 0 341 92" version="1.1" xmlns="http://www.w3.org/2000/svg" xmlns:xlink="http://www.w3.org/1999/xlink" xml:space="preserve" xmlns:serif="http://www.serif.com/" style="fill-rule:evenodd;clip-rule:evenodd;stroke-linejoin:round;stroke-miterlimit:2;">
    <g transform="matrix(5.77313e-17,-0.942823,0.905637,5.54543e-17,12.2901,96.8561)">
        <g>
            <g>
                <path d="M49.621,209.274C48.841,209.758 48.07,210.257 47.278,210.721C46.013,211.463 44.746,212.204 43.457,212.903C42.484,213.431 41.551,214.08 40.381,214.136C40.219,214.144 39.98,214.213 39.916,214.33C39.344,215.372 38.489,214.95 37.766,214.755C37.453,215.162 37.24,215.738 36.92,215.806C33.774,216.475 30.625,217.163 27.445,217.627C25.577,217.9 23.642,217.678 21.756,217.866C20.198,218.021 18.798,217.816 17.462,217.008C17.169,216.831 16.719,216.662 16.436,216.761C14.363,217.49 12.643,216.105 10.755,215.793C9.905,215.652 9.196,214.653 8.109,213.795C8.819,213.761 9.147,213.671 9.433,213.743C16.142,215.435 22.905,215.998 29.846,215.558C34.252,215.279 38.074,213.47 42.113,212.198C43.7,211.698 45.24,211.006 46.725,210.25C47.491,209.86 48.09,209.14 49.128,208.261C49.347,208.695 49.507,209.013 49.668,209.331L49.621,209.274Z" style="fill:rgb(13,131,157);fill-rule:nonzero;"/>
                <path d="M63.959,191.514C64.946,189.318 64.789,186.728 66.436,184.829C66.472,183.177 67.681,181.784 67.362,180.014C67.031,178.171 67.815,176.485 68.56,174.842C68.626,174.696 68.95,174.666 69.34,174.507C69.356,176.655 69.878,178.676 68.414,180.462C68.183,180.743 68.081,181.236 68.118,181.612C68.294,183.388 67.977,184.965 66.965,186.513C66.456,187.291 66.534,188.453 66.381,189.26C65.506,190.076 64.733,190.795 63.959,191.514Z" style="fill:rgb(13,131,157);fill-rule:nonzero;"/>
                <path d="M64.576,150.587C64.904,150.968 65.345,151.299 65.54,151.739C66.167,153.153 66.741,154.593 67.265,156.048C68.569,159.67 69.156,163.461 69.686,167.247C69.822,168.218 69.992,169.415 69.039,170.387C68.471,169.771 68.156,169.146 68.507,168.425C68.837,167.748 68.655,167.198 68.459,166.537C68.174,165.575 68.118,164.548 67.929,163.555C67.853,163.154 67.663,162.776 67.558,162.379C67.453,161.981 67.189,161.464 67.34,161.185C68.094,159.79 67.124,158.801 66.65,157.693C66.324,156.931 65.918,156.197 65.666,155.412C65.267,154.17 65.254,152.796 64.225,151.781C64.044,151.603 64.165,151.12 64.146,150.778C64.29,150.714 64.433,150.65 64.576,150.587Z" style="fill:rgb(13,131,157);fill-rule:nonzero;"/>
                <path d="M0.034,210.645C1.03,211.021 1.803,212.126 3.134,211.475C3.354,211.368 3.901,211.934 4.299,212.186C4.637,212.4 5.092,212.87 5.297,212.779C6.386,212.295 6.906,213.146 7.804,213.581C6.606,214.54 5.612,213.679 4.728,213.452C3.494,213.135 2.392,212.332 1.188,211.851C0.552,211.597 0.209,211.228 0.074,210.6L0.034,210.645Z" style="fill:rgb(13,131,157);fill-rule:nonzero;"/>
                <path d="M56.489,202.343C56.788,201.903 57.038,201.418 57.395,201.033C58.081,200.293 58.955,199.737 59.285,198.681C59.455,198.136 60.018,197.964 60.436,198.38C60.642,198.585 60.681,199.162 60.544,199.452C60.393,199.771 59.949,199.948 59.639,200.194C59.43,200.361 59.129,200.502 59.044,200.722C58.577,201.942 57.566,202.203 56.44,202.298C56.441,202.298 56.489,202.343 56.489,202.343Z" style="fill:rgb(13,131,157);fill-rule:nonzero;"/>
                <path d="M60.78,196.557C61.684,195.049 62.545,193.611 63.406,192.174C63.521,192.201 63.637,192.229 63.752,192.256C63.752,192.534 63.848,192.861 63.736,193.083C63.206,194.13 62.618,195.147 62.055,196.177C61.849,196.553 61.853,196.555 60.78,196.557Z" style="fill:rgb(13,131,157);fill-rule:nonzero;"/>
                <path d="M6.731,126.386C5.908,126.76 5.229,127.068 4.348,127.468C4.42,126.465 4.406,125.656 5.205,125.188C5.698,124.901 5.88,125.064 6.731,126.386Z" style="fill:rgb(13,131,157);fill-rule:nonzero;"/>
                <path d="M53.724,204.674C54.706,203.968 55.065,202.523 56.49,202.344C56.49,202.343 56.441,202.298 56.441,202.297C56.364,204.284 55.622,204.921 53.691,204.653L53.724,204.674Z" style="fill:rgb(13,131,157);fill-rule:nonzero;"/>
                <path d="M63.131,147.681C63.958,148.33 64.356,148.942 63.69,149.817C62.346,148.948 62.331,148.893 63.131,147.681Z" style="fill:rgb(13,131,157);fill-rule:nonzero;"/>
                <path d="M13.604,124.847C13.687,124.167 13.734,123.78 13.8,123.237C14.562,123.377 15.224,123.5 16.161,123.672C15.196,124.117 14.545,124.415 13.604,124.847Z" style="fill:rgb(13,131,157);fill-rule:nonzero;"/>
                <path d="M68.886,173.919C68.063,173.158 68.374,172.45 68.735,171.641C70.153,172.439 68.884,173.206 68.886,173.919Z" style="fill:rgb(13,131,157);fill-rule:nonzero;"/>
                <path d="M53.69,204.653C53.877,205.056 54.064,205.46 54.349,206.074C53.791,206.018 53.476,205.987 53.059,205.945C53.325,205.456 53.533,205.073 53.732,204.682C53.724,204.674 53.69,204.653 53.69,204.653Z" style="fill:rgb(13,131,157);fill-rule:nonzero;"/>
                <path d="M58.195,140.258C57.799,140.471 57.575,140.629 57.326,140.702C57.252,140.724 56.996,140.432 57.012,140.407C57.155,140.189 57.311,139.945 57.528,139.827C57.613,139.782 57.862,140.035 58.195,140.258Z" style="fill:rgb(13,131,157);fill-rule:nonzero;"/>
                <path d="M10.733,124.83C10.543,124.966 10.407,125.137 10.295,125.123C10.168,125.107 10.062,124.924 9.946,124.814C10.06,124.71 10.171,124.527 10.288,124.523C10.412,124.519 10.54,124.687 10.733,124.83Z" style="fill:rgb(13,131,157);fill-rule:nonzero;"/>
                <path d="M60.121,142.952C60.061,143.025 60.007,143.144 59.937,143.155C59.866,143.166 59.778,143.069 59.698,143.02C59.759,142.947 59.812,142.826 59.883,142.814C59.953,142.801 60.041,142.901 60.121,142.952Z" style="fill:rgb(13,131,157);fill-rule:nonzero;"/>
                <path d="M52.763,206.663C52.532,206.759 52.38,206.881 52.276,206.848C52.174,206.815 52.122,206.626 52.048,206.505C52.14,206.449 52.252,206.33 52.321,206.351C52.452,206.391 52.559,206.511 52.763,206.663Z" style="fill:rgb(13,131,157);fill-rule:nonzero;"/>
                <path d="M49.668,209.331C49.677,208.812 49.797,208.433 50.734,208.768C50.217,209 49.917,209.135 49.62,209.271C49.621,209.274 49.668,209.331 49.668,209.331Z" style="fill:rgb(13,131,157);fill-rule:nonzero;"/>
            </g>
            <g>
                <path d="M-75.473,320.639C-77.284,317.212 -79.094,313.785 -80.905,310.358C-81.015,310.384 -81.124,310.41 -81.234,310.436C-80.963,311.797 -80.692,313.159 -80.421,314.52C-80.499,314.571 -80.577,314.622 -80.656,314.673C-80.884,314.334 -81.189,314.025 -81.329,313.653C-82.637,310.186 -84.251,306.79 -85.126,303.215C-86.492,297.631 -87.357,291.916 -86.617,286.122C-86.391,284.351 -85.976,282.584 -85.451,280.876C-84.397,277.45 -83.214,274.063 -82.069,270.665C-81.106,267.807 -79.749,265.16 -77.816,262.824C-77.475,262.411 -77.141,261.969 -76.916,261.487C-75.865,259.231 -74.317,257.301 -72.616,255.562C-70.479,253.377 -68.673,250.795 -65.834,249.358C-65.415,249.146 -64.955,248.86 -64.711,248.482C-63.378,246.413 -61.362,245.552 -58.858,245.1C-59.448,245.631 -59.907,246.044 -60.366,246.457C-60.317,246.523 -60.267,246.589 -60.218,246.655C-59.564,246.277 -58.905,245.908 -58.258,245.518C-56.165,244.258 -53.96,243.235 -51.751,242.195C-50.049,241.394 -48.355,240.762 -46.531,240.408C-46.356,240.374 -46.098,240.209 -46.029,240.271C-44.678,241.487 -43.234,240.235 -41.855,240.455C-41.753,240.471 -41.665,240.574 -41.347,240.784C-42.081,240.962 -42.639,241.098 -43.57,241.324C-42.98,241.587 -42.717,241.792 -42.441,241.809C-41.726,241.853 -40.975,241.943 -40.292,241.785C-37.642,241.175 -35.086,241.874 -32.504,242.231C-32.347,242.253 -32.208,242.403 -31.916,242.581C-32.177,242.85 -32.359,243.204 -32.616,243.271C-33.36,243.465 -34.135,243.656 -34.895,243.647C-38.277,243.606 -41.553,243.942 -44.72,245.321C-48.112,246.798 -51.63,247.988 -55.042,249.423C-56.171,249.898 -57.143,250.747 -58.188,251.422C-59.236,252.099 -60.33,252.717 -61.325,253.464C-62.317,254.209 -63.19,255.109 -64.152,255.895C-66.544,257.848 -67.966,260.609 -69.992,262.87C-70.86,263.838 -71.503,265.018 -72.182,266.141C-72.609,266.846 -72.878,267.548 -72.641,268.5C-72.48,269.149 -72.854,270.027 -73.203,270.691C-75.209,274.514 -76.035,278.685 -76.755,282.865C-77.065,284.667 -76.863,286.553 -76.968,288.397C-77.146,291.52 -76.426,294.561 -76.177,297.645C-76.098,298.628 -75.729,299.61 -75.362,300.54C-74.979,301.509 -74.639,302.406 -75.08,303.469C-75.187,303.727 -74.885,304.444 -74.662,304.498C-73.854,304.694 -73.74,305.393 -73.413,305.924C-72.046,308.144 -70.715,310.386 -69.351,312.608C-69.14,312.952 -68.868,313.282 -68.557,313.538C-67.519,314.391 -66.726,315.435 -66.305,316.691C-66.05,317.451 -65.573,317.823 -64.943,318.233C-63.507,319.168 -62.043,320.034 -61.105,321.639C-60.606,322.493 -59.527,323.068 -58.614,323.606C-57.489,324.27 -57.193,325.121 -57.637,326.269C-43.25,338.262 -21.914,337.97 -9.419,329.108C-9.559,328.394 -9.7,327.677 -9.875,326.782C-9.137,326.509 -8.441,326.256 -7.749,325.993C-7.595,325.934 -7.383,325.882 -7.316,325.761C-6.173,323.691 -4.084,322.638 -2.4,321.15C-2.265,321.031 -2.119,320.922 -2.003,320.787C1.647,316.523 5.703,312.514 7.616,307.067C9.196,302.567 10.8,298.074 11.233,293.238C11.883,285.974 10.883,279.057 7.579,272.517C7.417,272.197 7.218,271.881 7.133,271.539C6.241,267.916 3.89,265.168 1.576,262.436C-1.534,258.764 -5.216,255.709 -9.178,252.988C-10.098,252.356 -10.089,252.343 -10.188,251.055C-8.914,250.578 -7.952,251.633 -6.694,251.788C-6.368,251.51 -5.98,251.178 -5.567,250.825C-5.136,251.048 -4.749,251.207 -4.406,251.433C-3.283,252.175 -2.298,252.027 -1.071,251.437C0.496,250.684 2.234,250.17 3.953,249.892C5.171,249.695 5.984,248.939 6.992,248.466C7.413,248.269 7.768,247.933 8.205,247.624C8.683,247.913 9.124,248.18 9.748,248.557C10.008,247.604 10.235,246.773 10.568,245.553C10.809,246.205 11.005,246.493 11.004,246.78C11,247.613 10.942,248.449 10.859,249.279C10.773,250.139 10.874,250.75 11.651,251.436C13.342,252.927 14.807,254.674 16.366,256.315C16.571,256.531 16.788,256.737 16.998,256.948C18.41,258.369 20.037,258.509 21.742,257.619C23.262,256.825 24.721,255.912 26.485,254.89C26.27,255.396 26.215,255.785 25.992,256C25.219,256.744 24.408,257.401 24.171,258.568C24.077,259.031 23.529,259.402 23.178,259.826C23.922,262.914 23.922,262.914 26.415,263.902C25.87,264.149 25.437,264.346 24.801,264.635C26.707,266.294 29.269,264.882 30.942,266.613C30.279,266.533 29.614,266.384 28.952,266.394C28.3,266.404 27.653,266.633 26.999,266.665C26.142,266.707 25.726,267.222 25.37,267.998C25.884,268.691 26.767,269.263 26.529,270.4C26.485,270.608 26.888,271.003 27.169,271.168C28.195,271.77 29.245,272.333 30.308,272.867C30.815,273.122 31.459,273.191 31.489,274.144C29.822,273.657 28.26,273.201 26.517,272.692C26.599,274.138 26.952,275.198 27.957,275.988C28.287,276.247 28.631,276.497 28.917,276.799C29.674,277.6 30.304,278.38 29.579,279.619C29.144,280.364 29.052,281.303 28.766,282.142C28.545,282.79 28.716,283.282 29.169,283.77C29.859,284.514 30.523,285.287 31.148,286.087C31.692,286.784 32.343,287.465 31.587,288.475C31.427,288.689 31.698,289.245 31.805,289.633C31.96,290.196 32.219,290.759 31.614,291.328C30.556,290.536 29.537,289.772 28.517,289.009C28.406,289.081 28.295,289.152 28.185,289.224C28.429,289.983 28.679,290.741 28.916,291.503C29.11,292.128 29.381,292.715 28.592,293.236C28.298,293.43 28.136,294.055 28.163,294.467C28.396,298.022 28.154,301.526 27.197,304.968C27.133,305.197 27.082,305.438 27.08,305.674C27.068,306.84 27.075,308.007 27.075,309.275C25.996,309.427 25.454,309.952 25.024,310.93C21.997,317.816 18.212,324.26 13.129,329.843C11.202,331.959 8.993,333.822 6.881,335.765C6.125,336.46 5.097,336.622 4.169,336.996C1.909,337.906 -0.236,339.099 -2.424,340.186C-4.242,341.089 -6.012,342.106 -7.879,342.893C-12.368,344.785 -16.994,346.172 -21.919,346.355C-23.107,346.399 -24.293,346.63 -25.468,346.842C-29.79,347.62 -34.036,347.223 -38.273,346.19C-40.358,345.682 -42.522,345.493 -44.597,344.954C-45.965,344.599 -47.245,343.894 -48.553,343.318C-50.249,342.57 -51.865,341.457 -53.636,341.103C-57.118,340.408 -59.272,337.753 -61.967,335.944C-65.643,333.477 -68.864,330.405 -71.871,327.139C-72.057,326.937 -72.125,326.624 -72.248,326.363L-72.294,326.4C-71.89,326.513 -71.486,326.626 -70.768,326.827C-71.976,325.19 -72.858,323.749 -74.276,322.761C-74.324,322.717 -74.371,322.674 -74.419,322.631C-74.789,321.95 -75.159,321.268 -75.528,320.587L-75.473,320.639ZM-81.263,274.556C-81.437,274.515 -81.61,274.473 -81.784,274.432C-81.922,275.137 -82.061,275.842 -82.199,276.547C-82.11,276.571 -82.021,276.596 -81.932,276.62C-81.709,275.932 -81.486,275.244 -81.263,274.556ZM-80.45,272.595C-80.372,272.618 -80.294,272.641 -80.217,272.664C-80.143,272.414 -80.07,272.163 -79.996,271.913C-80.072,271.891 -80.148,271.868 -80.224,271.846C-80.299,272.095 -80.375,272.345 -80.45,272.595Z" style="fill:rgb(201,24,24);fill-rule:nonzero;"/>
                <path d="M36.137,272.351C32.827,272.664 32.827,272.664 32.864,271.169C34.009,271.583 35.073,271.967 36.137,272.351Z" style="fill:rgb(201,24,24);fill-rule:nonzero;"/>
            </g>
            <g>
                <path d="M25.878,124.223C26.215,124.478 26.556,124.932 26.888,124.926C27.17,124.921 27.628,124.417 27.687,124.075C27.94,122.599 27.693,120.888 28.334,119.656C29.524,117.369 27.29,115.997 27.598,114.04C28.587,114.352 29.127,116.365 30.858,115.325C30.582,114.952 30.316,114.592 30.045,114.227C30.128,114.183 30.264,114.094 30.275,114.108C31.633,115.848 33.015,114.626 34.374,114.131C35.052,113.884 35.678,113.409 36.366,113.301C36.727,113.245 37.17,113.76 37.681,114.083C37.787,113.641 37.887,113.229 37.986,112.817C38.083,112.816 38.181,112.815 38.278,112.815C38.436,113.211 38.593,113.607 38.874,114.312C39.205,113.323 39.437,112.629 39.669,111.936C39.756,111.947 39.842,111.958 39.929,111.97C39.989,113.141 40.049,114.313 40.112,115.54C40.998,115.58 41.232,115.194 40.784,114.434C40.391,113.767 40.002,113.156 40.855,112.645C41.233,113.167 41.867,113.652 41.897,114.174C41.941,114.943 41.555,115.739 41.236,116.971C42.774,116.46 43.978,116.059 45.183,115.659C45.218,115.726 45.253,115.793 45.288,115.86C44.009,116.575 42.729,117.29 41.773,117.824C41.669,119.329 41.871,120.728 41.409,121.828C40.972,122.869 41.349,123.129 41.984,123.513C42.935,124.087 43.9,124.634 44.735,125.449C43.852,125.299 42.946,124.965 42.094,125.075C41.667,125.13 41.337,125.993 40.871,126.612C41.931,126.905 42.844,127.157 43.757,127.409C43.711,127.605 43.666,127.802 43.62,127.998C42.652,127.806 41.685,127.615 40.664,127.412C40.145,128.1 39.552,128.885 38.945,129.689C39.177,129.877 39.603,130.224 40.03,130.571C39.965,130.664 39.901,130.757 39.836,130.85C39.237,130.606 38.638,130.361 38.033,130.114C37.852,130.375 37.713,130.74 37.454,130.923C36.48,131.609 36.102,132.332 36.862,133.491C37.439,134.37 37.276,134.493 36.272,134.628C36.031,134.661 35.618,135.394 35.709,135.624C35.991,136.335 36.478,136.96 36.918,137.671C36.68,137.827 36.288,138.084 35.838,138.379C36.034,138.679 36.214,138.954 36.212,138.95C35.291,139.866 34.49,140.663 33.593,141.555C34.014,141.942 34.347,142.247 34.806,142.669C33.358,142.664 32.765,143.206 33.096,144.738C33.382,146.059 32.053,148.027 30.708,148.685C30.414,148.829 30.117,148.967 29.506,149.258C30.045,149.854 30.539,150.286 30.89,150.819C31.244,151.358 31.456,151.998 31.862,152.881C30.761,153.531 29.713,154.266 28.575,154.793C27.106,155.474 26.523,157.125 27.416,158.472C29.021,160.894 28.548,163.998 26.15,165.483C25.047,166.166 23.681,166.407 22.417,166.783C22.254,166.831 21.981,166.484 21.687,166.267C21.276,167.692 22.191,168.183 23.244,168.715C21.757,169.091 22.163,170.252 22.381,171.093C22.749,172.512 22.651,173.612 21.624,174.755C21.018,175.43 20.835,176.512 20.432,177.482C20.125,177.842 19.763,178.412 19.27,178.806C18.766,179.209 18.157,179.506 17.554,179.734C15.658,180.451 13.339,179.409 12.878,177.38C12.529,175.847 12.643,174.189 12.665,172.588C12.669,172.312 13.241,172.045 13.602,171.728C12.784,170.925 13.156,170.298 14.009,169.689C14.943,169.023 15.739,167.864 16.739,167.655C18.039,167.384 18.527,166.095 19.783,165.797C17.416,165.2 17.452,162.441 15.842,160.962C16.379,160.099 17.077,158.942 17.808,157.808C18.776,156.307 20.396,156.158 21.884,155.719C22.616,155.503 23.318,155.18 23.894,154.959C22.924,153.556 22.103,152.464 21.386,151.302C20.79,150.336 21.161,149.444 22.193,149.024C23.152,148.634 24.101,148.216 25.076,147.801C24.77,146.889 24.473,146.001 24.136,144.995C23.664,145.421 23.235,145.832 22.781,146.212C22.325,146.593 21.846,146.944 21.224,147.426C20.891,147.285 20.381,147.069 19.866,146.852C19.782,147.592 19.701,148.309 19.61,149.122C18.548,148.785 18.278,148.26 17.839,147.436C17.256,146.342 17.014,144.223 14.913,144.538C14.802,144.555 14.657,144.43 14.55,144.341C14.483,144.286 14.458,144.176 14.312,143.89C14.798,143.731 15.245,143.586 15.975,143.348C15.439,142.935 15.044,142.631 14.81,142.451C15.135,141.344 15.447,140.281 15.759,139.217C15.631,139.15 15.503,139.084 15.375,139.017C16.024,138.763 16.672,138.509 17.407,138.22C17.443,137.798 17.483,137.334 17.53,136.789L19.808,136.789C19.315,135.704 18.906,134.804 18.358,133.597C18.829,133.528 19.413,133.442 20.161,133.332C22.274,131.318 21.11,129.023 19.793,126.723C20.036,126.659 20.279,126.595 20.523,126.531C21.086,127.575 21.648,128.618 22.189,129.62C22.618,128.743 22.995,127.972 23.528,126.882C23.864,127.642 23.996,127.939 24.091,128.153C24.745,127.811 25.345,127.583 25.843,127.207C26.185,126.949 26.508,126.515 26.595,126.104C26.637,125.904 26.104,125.592 25.861,125.304C25.634,125.035 25.448,124.73 25.243,124.44C25.457,124.367 25.671,124.293 25.884,124.22L25.878,124.223Z" style="fill-rule:nonzero;"/>
                <path d="M-14.599,78.331C-15.069,78.56 -15.638,78.806 -16.174,79.113C-16.419,79.253 -16.767,79.516 -16.766,79.721C-16.764,79.971 -16.495,80.324 -16.253,80.449C-15.527,80.824 -14.759,81.11 -13.753,81.538C-15,82.077 -15.11,82.671 -14.171,82.987C-13.474,83.222 -12.619,83.123 -11.869,82.979C-10.718,82.757 -9.596,82.368 -8.395,82.249C-9.698,83.263 -11.867,83.17 -12.046,85.673C-10.199,85.067 -7.692,86.376 -6.987,88.29C-6.784,88.067 -6.597,87.863 -6.45,87.702C-5.404,90.669 -2.459,89.48 -0.462,90.528C-0.243,90.151 0.028,89.684 0.299,89.218C0.394,89.247 0.49,89.275 0.585,89.304C0.543,89.571 0.527,89.846 0.451,90.102C0.348,90.451 0.071,90.801 0.108,91.121C0.139,91.389 0.512,91.614 0.76,91.887C1.285,91.568 1.768,91.274 2.186,91.02C2.52,91.398 2.841,91.76 3.158,92.118C3.099,92.196 2.761,92.444 2.768,92.681C2.776,92.984 2.997,93.445 3.241,93.549C4.904,94.261 5.989,95.729 7.366,96.81C7.621,97.01 8.03,97.153 8.114,97.412C8.684,99.163 9.229,100.926 9.682,102.712C9.804,103.192 9.69,103.813 9.497,104.288C8.98,105.565 9.099,106.548 10.37,107.247C10.61,107.379 10.73,107.746 11.075,108.254C10.353,108.123 9.921,108.044 9.864,108.034C8.909,108.991 8.114,109.786 7.296,110.605C8.039,111.582 8.075,112.497 7.165,113.078C6.377,113.581 5.564,113.636 5.108,112.661C4.525,111.414 5.291,110.766 6.295,110.329C5.688,109.146 5.546,108.092 6.417,106.892C6.72,106.473 6.503,105.399 6.194,104.809C5.625,103.723 4.778,102.852 3.276,103.466C3.208,102.053 2.383,101.604 1.147,101.228C0.214,100.944 -0.508,99.913 -1.414,99.138C-1.62,99.43 -1.836,99.737 -2.043,100.031C-3.208,98.763 -3.208,98.763 -4.997,99.627C-4.352,98.039 -5.43,97.691 -6.025,97.468C-6.547,96.437 -6.784,95.611 -7.308,95.099C-7.538,94.874 -8.351,95.289 -9.15,95.47C-9.098,95.512 -9.413,95.379 -9.421,95.23C-9.506,93.582 -10.727,93.682 -11.81,93.28C-12.665,92.963 -13.452,92.066 -13.957,91.225C-14.496,90.328 -15.653,89.592 -16.679,90.018C-16.967,90.138 -17.187,90.434 -17.614,90.799C-18.039,90.419 -18.615,89.549 -19.359,89.351C-19.971,89.188 -20.781,89.821 -21.747,90.196C-24.391,89.611 -27.396,88.945 -30.418,88.276C-30.326,87.38 -32.196,85.486 -33.431,85.453C-33.277,83.908 -33.424,83.556 -34.496,82.936L-34.496,76.007C-34.535,76.007 -34.367,76.036 -34.212,76.001C-33.803,75.91 -33.214,75.917 -33.047,75.65C-32.877,75.377 -33.062,74.802 -33.202,74.4C-33.452,73.682 -33.786,72.995 -34.085,72.295C-33.914,72.224 -33.742,72.153 -33.571,72.082C-33.209,72.983 -32.846,73.883 -32.328,75.172C-31.48,73.954 -30.829,73.02 -30.079,71.944C-29.875,72.255 -29.668,72.572 -29.446,72.911C-29.342,72.871 -29.161,72.86 -29.089,72.764C-28.51,71.978 -27.83,71.594 -26.881,72.065C-26.758,72.126 -26.599,72.153 -26.464,72.135C-23.834,71.795 -22.048,73.313 -20.403,75.108C-19.608,75.975 -18.944,76.984 -18.088,77.775C-17.068,78.718 -15.887,78.35 -14.763,77.861C-14.735,77.849 -14.671,77.86 -14.66,77.881C-14.639,77.919 -14.643,77.974 -14.599,78.331ZM-14.785,88.506C-14.003,87.984 -13.642,87.602 -13.212,87.482C-11.695,87.06 -12.264,85.83 -12.445,84.99C-12.509,84.692 -13.679,84.649 -14.25,84.513C-14.45,86.012 -14.596,87.098 -14.785,88.506Z" style="fill-rule:nonzero;"/>
                <path d="M25.468,301.469C25.637,301.901 25.691,302.129 25.807,302.318C26.089,302.779 26.398,303.222 26.696,303.673C27.036,303.391 27.34,303.025 27.725,302.847C28.182,302.636 28.708,302.586 29.204,302.466C29.28,302.93 29.532,303.462 29.394,303.844C29.149,304.527 28.7,305.069 29.29,305.837C29.508,306.12 29.556,306.796 29.379,307.109C28.351,308.929 29.195,310.575 29.683,312.271C29.763,312.549 29.739,312.881 29.687,313.173C29.508,314.175 29.295,315.171 29.091,316.19C28.732,316.267 28.364,316.346 28.009,316.423C28.637,317.242 29.201,317.976 29.654,318.566C29.332,319.328 28.904,319.887 28.896,320.453C28.878,321.745 28.023,322.251 27.125,322.399C26.429,322.513 25.645,322.052 24.59,321.762C23.632,322.705 22.392,324.047 21.024,325.228C20.169,325.966 19.935,327.384 18.356,327.437C17.663,327.46 16.972,328.534 16.335,329.188C15.4,330.149 14.514,331.161 13.464,332.308C13.462,332.302 13.581,332.609 13.696,332.905C13.523,333.01 13.417,333.122 13.367,333.099C12.492,332.71 11.671,332.293 11.008,333.531C10.881,333.769 9.914,333.463 9.703,333.725C8.764,334.89 7.687,333.916 6.759,334.119C5.941,334.298 5.013,335.094 4.603,335.881C3.767,337.484 3.087,338.167 1.883,337.856C0.6,337.525 -0.642,335.718 -0.5,334.362C-0.396,333.372 0.167,332.918 1.113,332.795C2.462,332.62 3.801,332.352 4.769,332.188C5.097,330.377 5.333,329.073 5.565,327.79C7.515,327.85 8.1,327.448 8.105,326.339C8.63,326.228 9.109,326.13 9.587,326.025C10.038,325.926 10.485,325.806 10.938,325.721C11.9,325.54 13.007,325.628 13.798,325.151C15.243,324.279 16.637,323.214 17.803,321.976C19.148,320.547 20.31,318.907 21.394,317.248C23.195,314.493 23.448,311.172 24.246,308.062C24.77,306.007 25.031,303.876 25.468,301.469Z" style="fill-rule:nonzero;"/>
                <path d="M12.406,192.216C11.487,192.845 10.858,193.564 11.192,194.867C11.661,196.693 10.903,198.258 10.148,199.758C9.635,200.778 9.297,201.619 10.354,202.61C9.783,202.537 9.406,202.489 8.94,202.429C8.869,203.36 8.805,204.202 8.749,204.935C7.925,205.213 7.12,205.443 6.357,205.777C6.186,205.852 6.24,206.38 6.059,206.548C5.753,206.831 5.358,207.096 4.969,207.158C4.807,207.184 4.565,206.67 4.247,206.256C3.261,206.223 2.088,206.112 1.199,204.91C0.456,203.905 -0.35,203.031 0.636,201.45C-0.258,201.721 -0.705,201.856 -1.344,202.049C-1.025,200.756 1.042,200.689 0.08,198.959C-0.197,198.915 -0.587,198.852 -0.978,198.79C-0.989,198.713 -1.001,198.636 -1.012,198.56C-0.743,198.476 -0.44,198.447 -0.21,198.298C0.517,197.826 1.612,197.461 1.853,196.783C2.609,194.66 3.834,193.023 5.551,191.704C5.732,191.565 5.835,191.318 6.055,191.006C5.641,190.916 5.317,190.845 4.924,190.759C6.4,190.389 7.122,188.68 6.682,187.237C6.52,186.705 6.779,185.907 7.083,185.376C7.892,183.965 8.96,182.813 10.547,182.273C10.952,182.135 11.332,181.772 11.612,181.419C12.429,180.387 13.461,180.137 14.529,180.729C15.612,181.33 15.612,182.405 15.341,183.562C15.201,184.16 15.241,184.868 15.406,185.466C16.022,187.7 15.37,189.412 13.486,190.669C13.004,190.987 12.759,191.689 12.406,192.216Z" style="fill-rule:nonzero;"/>
                <path d="M3.761,298.85C4.139,298.23 4.585,297.64 4.87,296.977C5.041,296.581 5.121,296.001 4.969,295.62C3.761,292.584 4.003,291.474 6.467,289.324C6.612,289.198 8.575,289.053 8.861,289.143C9.492,289.341 10.124,289.536 11.156,289.857C10.723,289.086 10.506,288.701 10.334,288.395C11.136,288.498 11.994,288.627 12.856,288.715C14.228,288.855 14.735,289.998 14.146,291.592C14.059,291.826 14.134,292.124 14.281,292.389C14.925,290.364 15.243,290.013 16.919,289.803C15.051,289.493 16.083,288.069 15.688,287.241C17.034,286.335 18.215,286.321 19.407,287.856C19.214,286.422 19.067,285.216 20.835,285.45C20.154,284.092 21.157,283.618 21.798,282.869C22.646,281.879 23.567,282.425 24.517,282.519C25.13,280.892 24.675,278.456 27.426,278.504C27.621,277.158 27.183,275.446 28.753,275.231C29.097,274.235 29.363,273.5 29.605,272.757C29.75,272.311 29.788,271.813 30,271.409C30.187,271.053 30.513,270.616 30.842,270.547C31.14,270.485 31.537,270.855 31.865,271.074C31.962,271.138 31.972,271.339 32.025,271.476C32.247,272.05 32.47,272.623 32.693,273.197C32.155,273.172 31.618,273.148 31.046,273.121C31.164,273.281 31.315,273.563 31.533,273.766C32.281,274.462 32.091,275.226 31.364,275.556C30.684,275.865 30.829,276.437 30.56,276.81C29.918,277.699 29.003,278.375 28.106,279.226C28.671,280.391 28.19,281.643 26.613,282.211C25.896,282.469 25.162,282.635 25.464,283.8C25.556,284.155 24.982,284.661 24.804,285.134C24.673,285.483 24.691,285.892 24.593,286.657C24.606,286.651 24.237,286.816 23.868,286.982C23.831,287.07 23.74,287.193 23.767,287.237C24.321,288.132 24.028,288.489 23.069,288.495C22.706,288.497 22.288,288.495 21.994,288.672C21.517,288.96 20.783,288.865 20.769,289.942C20.763,290.38 19.411,290.799 18.513,291.319C18.508,292.403 17.55,293.684 16.563,293.813C16.08,293.876 15.53,294.217 15.209,294.606C14.392,295.596 13.546,296.236 12.182,295.438C12.223,299.853 9.937,297.688 8.103,296.798C8.271,298.519 7.955,299.741 6.593,300.434C5.54,300.971 4.789,300.355 4.03,299.745C3.942,299.447 3.852,299.148 3.761,298.85Z" style="fill-rule:nonzero;"/>
                <path d="M-5.482,166.774C-5.271,166.516 -5.047,166.319 -4.917,166.069C-4.317,164.915 -4.629,164.361 -5.887,164.265C-6.418,164.225 -6.947,164.144 -7.454,163.823C-7.11,163.823 -6.756,163.769 -6.423,163.833C-5.211,164.067 -4.321,163.839 -3.937,162.423C-3.835,162.046 -3.286,161.799 -2.943,161.492C-3.282,161.025 -3.616,160.563 -3.951,160.101C-3.863,159.993 -3.775,159.885 -3.686,159.777C-3.248,160.137 -2.81,160.496 -2.06,161.113C-1.945,160.436 -1.8,159.84 -1.752,159.237C-1.701,158.581 -1.74,157.918 -1.74,157.258C-1.578,157.254 -1.416,157.25 -1.254,157.245C-1.096,157.867 -0.938,158.489 -0.728,159.316C0.329,157.1 1.663,155.732 4.101,155.675C6.907,155.61 9.952,158.201 9.785,161.263C9.655,163.647 8.882,165.898 7.654,167.95C7.579,168.075 7.482,168.304 7.413,168.297C5.615,168.121 6.01,169.878 5.359,170.787C3.917,170.244 3.229,171.444 2.281,172.328C0.768,171.835 -1.012,171.647 -2.306,170.725C-3.612,169.792 -4.433,168.134 -5.482,166.774Z" style="fill-rule:nonzero;"/>
                <path d="M1.566,207.679C2.688,208.56 2.738,209.713 2.244,210.931C1.914,211.745 2.099,212.219 2.782,212.764C3.364,213.229 3.696,214.018 4.186,214.622C4.477,214.98 4.86,215.258 5.24,215.606C5.138,215.651 4.854,215.777 4.357,215.996C4.874,216.441 5.282,216.792 5.74,217.186C5.578,217.226 5.295,217.231 5.275,217.31C4.854,218.909 4.404,220.506 4.112,222.132C4.046,222.498 4.496,223.029 4.812,223.386C5.131,223.745 5.579,223.982 5.789,224.137L-1.02,224.137C-0.977,224.079 -0.791,223.829 -0.556,223.511C-1.134,223.091 -1.658,222.542 -2.292,222.279C-4.764,221.254 -6.035,219.236 -7.031,216.807C-7.658,215.28 -8.709,213.94 -9.542,212.564C-8.94,212.278 -8.302,211.975 -7.324,211.511C-5.512,211.282 -3.273,210.998 -0.949,210.704C-1.406,208.733 0.485,208.519 1.566,207.679Z" style="fill-rule:nonzero;"/>
                <path d="M20.539,337.799C21.963,338.71 20.963,339.351 20.313,340.04C19.832,340.55 19.345,341.055 18.631,341.803C17.309,341.68 15.551,341.515 13.646,341.338C13.76,339.821 13.922,338.396 13.934,336.97C13.937,336.635 13.433,336.296 12.915,335.652C13.594,335.849 13.904,335.939 14.31,336.056C14.356,335.567 14.4,335.096 14.449,334.566C15.423,333.914 16.419,333.176 17.483,332.565C18.022,332.256 18.763,332.671 19.241,331.804C20.049,330.339 21.095,329.015 22.026,327.621C22.478,326.944 22.812,326.156 23.358,325.58C23.813,325.1 24.475,324.662 25.093,324.577C25.484,324.523 26.241,325.083 26.333,325.489C26.452,326.012 26.16,326.707 25.886,327.24C25.155,328.66 24.349,330.038 23.546,331.417C23.414,331.643 23.116,331.76 22.96,331.978C22.743,332.28 22.4,332.656 22.437,332.956C22.753,335.471 22.458,336.321 20.539,337.799Z" style="fill-rule:nonzero;"/>
                <path d="M40.242,65.96C40.126,66.557 40.115,67.227 39.85,67.76C39.668,68.125 39.163,68.398 38.747,68.541C38.023,68.791 37.244,68.866 36.51,69.093C35.323,69.46 34.78,70.203 35.316,71.184C34.464,71.706 33.686,72.141 32.979,72.675C32.898,72.736 33.213,73.359 33.379,73.817C33.169,73.756 32.716,73.74 32.674,73.595C32.218,72.039 30.895,72.447 29.907,72.348C28.385,72.196 26.69,70.756 26.651,69.252C26.61,67.661 27.85,66.083 29.359,65.859C29.918,65.776 30.546,65.669 31.056,65.844C33.9,66.822 35.155,65.844 37.847,64.458C38.707,64.999 39.483,65.485 40.242,65.96Z" style="fill-rule:nonzero;"/>
                <path d="M43.793,58.693C43.72,59.506 43.674,59.921 43.646,60.337C43.546,61.815 42.577,63.076 41.34,63.327C40.257,63.547 39.095,62.774 38.594,61.515C38.141,60.375 38.391,59.347 39.205,58.54C40.07,57.681 41.118,57.52 42.211,58.142C42.496,58.304 42.768,58.491 43.202,58.765C43.452,58.318 43.777,57.906 43.93,57.434C44.431,55.885 45.374,55.25 46.914,55.332C48.324,55.407 49.788,55.112 51.14,55.411C52.327,55.674 53.793,55.143 54.704,56.429C54.937,56.758 55.097,57.143 55.184,57.304C53.656,57.525 52.267,57.623 50.935,57.966C50.331,58.122 49.834,58.752 49.304,59.186C47.475,60.683 45.788,61.049 43.793,58.693Z" style="fill-rule:nonzero;"/>
                <path d="M32.558,44.154C32.886,43.836 33.466,43.301 34.015,42.735C34.88,41.842 36.018,41.031 36.981,42.013C37.739,42.786 37.939,44.183 38.279,45.336C38.386,45.7 38.135,46.171 38.07,46.597C37.99,47.127 37.972,47.672 37.831,48.182C37.804,48.279 37.132,48.338 37.094,48.253C36.88,47.774 36.768,47.245 36.538,46.443C35.766,46.201 34.712,45.87 33.436,45.47C33.24,46.234 33.212,47.259 32.731,47.938C32.311,48.53 31.413,48.921 30.666,49.066C29.308,49.329 27.932,49.13 26.939,47.983C26.035,46.939 26.054,45.598 26.703,44.541C27.369,43.456 28.614,42.987 29.881,43.187C30.699,43.315 31.47,43.747 32.558,44.154Z" style="fill-rule:nonzero;"/>
                <path d="M13.813,151.276C13.505,154.465 12.325,156.047 9.242,156.243C7.641,156.345 5.685,153.988 5.673,152.106C5.657,149.675 7.345,147.33 9.146,147.28C11.402,147.218 13.81,149.28 13.813,151.276Z" style="fill-rule:nonzero;"/>
                <path d="M28.718,224.462C28.832,225.172 29.042,226.165 29.127,227.17C29.157,227.52 28.88,227.898 28.57,228.108C27.29,225.178 27.933,222.717 29.166,220.395C29.787,219.225 30.787,218.274 31.431,217.114C32.12,215.873 32.591,214.503 33.206,213.076C33.979,214.052 34.803,215.092 35.663,216.18C34.918,216.805 33.955,217.267 33.558,218.04C33.14,218.857 33.427,220.033 33.108,220.94C32.693,222.121 32.169,223.39 31.329,224.232C30.853,224.708 29.65,224.408 28.718,224.462Z" style="fill-rule:nonzero;"/>
                <path d="M27.843,234.461C28.533,234.937 29.077,235.313 29.621,235.689C28.036,235.054 26.639,235.444 25.126,236.017C24.46,236.269 23.352,235.778 22.66,235.293C21.995,234.828 21.79,234.09 21.894,232.967C21.985,231.985 23.213,231.145 22.091,229.843C23.304,229.554 24.298,229.195 25.314,229.11C26.265,229.03 27.239,229.24 28.154,229.318C28.032,229.476 27.752,229.839 27.422,230.267C27.824,230.813 28.24,231.376 28.669,231.959C28.947,231.761 29.229,231.561 29.745,231.194C29.002,232.47 28.414,233.48 27.843,234.461Z" style="fill-rule:nonzero;"/>
                <path d="M12.097,54.497C12.401,54.437 12.6,54.398 12.798,54.359C12.873,54.517 12.947,54.674 13.022,54.832C11.889,55.51 10.82,56.38 9.606,56.816C8.147,57.341 6.786,56.509 6.017,55.012C5.431,53.87 5.665,51.916 6.538,51.058C7.752,49.863 9.286,49.565 10.634,50.295C11.869,50.963 12.44,52.578 12.097,54.497Z" style="fill-rule:nonzero;"/>
                <path d="M71.653,289.703C73.991,289.849 75.21,291.001 75.116,292.975C75.041,294.551 73.651,295.743 71.997,295.649C70.15,295.544 69.005,294.18 69.129,292.232C69.215,290.871 70.456,289.628 71.653,289.703Z" style="fill-rule:nonzero;"/>
                <path d="M29.05,291.152C29.989,290.24 30.649,289.646 31.254,288.998C31.773,288.442 32.205,287.799 32.722,287.239C33.196,286.725 33.917,286.77 33.77,287.504C33.463,289.036 32.886,290.527 32.268,291.965C32.113,292.325 31.382,292.419 30.91,292.637C30.697,294.866 29.868,295.941 28.387,295.895C27.233,295.859 26.547,295.064 26.539,293.751C26.528,292.088 27.573,291.195 29.05,291.152Z" style="fill-rule:nonzero;"/>
                <path d="M49.487,41.29C47.889,41.267 46.807,40.191 46.849,38.663C46.888,37.235 48.05,36.049 49.417,36.042C50.685,36.036 52.592,37.667 52.582,38.749C52.569,40.166 51.171,41.314 49.487,41.29Z" style="fill-rule:nonzero;"/>
                <path d="M17.13,242.039C17.017,242.982 16.912,243.925 16.787,244.866C16.728,245.308 16.631,245.745 16.599,245.916C15.877,246.32 15.213,246.691 14.506,247.087C14.219,246.942 13.749,246.58 13.228,246.466C12.036,246.206 11.917,245.315 11.999,244.359C12.168,242.399 13.628,241.335 15.909,241.515C16.337,241.549 16.744,241.878 17.16,242.07L17.13,242.039Z" style="fill-rule:nonzero;"/>
                <path d="M91.977,267.787C93.315,268.15 94.125,268.961 93.879,270.431C93.699,271.501 92.952,272.336 91.918,272.147C91.234,272.022 90.38,271.309 90.12,270.643C89.686,269.535 89.985,268.409 91.319,267.961C90.462,267.191 90.235,265.038 91.013,264.397C91.201,264.242 91.836,264.404 92.068,264.634C92.435,264.996 92.888,265.565 92.845,265.998C92.785,266.603 92.302,267.162 91.977,267.787Z" style="fill-rule:nonzero;"/>
                <path d="M6.976,253.709C7.976,255.657 8.007,256.945 6.947,257.795C5.997,258.556 4.961,258.596 3.929,257.845C2.942,257.127 2.752,256.125 3.051,255.04C3.455,253.573 4.117,253.383 6.976,253.709Z" style="fill-rule:nonzero;"/>
                <path d="M14.976,52.845C13.657,52.86 12.929,52.092 12.889,50.641C12.853,49.371 14.195,47.437 15.151,47.79C16.133,48.153 17.157,49.211 17.559,50.223C18.009,51.355 16.361,52.829 14.976,52.845Z" style="fill-rule:nonzero;"/>
                <path d="M79.692,286.244C79.618,286.648 79.599,286.843 79.546,287.028C79.145,288.441 76.194,289.242 75.261,288.134C74.976,287.795 74.839,287.107 74.96,286.678C75.078,286.263 75.602,285.958 75.974,285.638C76.172,285.468 76.423,285.362 76.655,285.236C77.33,284.869 78.007,284.506 78.683,284.141C79.043,284.89 79.402,285.638 79.692,286.244Z" style="fill-rule:nonzero;"/>
                <path d="M35.173,278.516C35.72,279.947 36.059,281.323 34.54,282.137C34.09,282.378 33.043,282.315 32.861,282.011C32.506,281.419 32.308,280.47 32.512,279.828C32.909,278.576 33.889,278.018 35.173,278.516Z" style="fill-rule:nonzero;"/>
                <path d="M46.163,47.508C45.03,45.3 44.987,44.397 45.998,43.891C46.843,43.468 47.577,43.698 48.063,44.541C48.639,45.54 48.303,46.058 46.163,47.508Z" style="fill-rule:nonzero;"/>
                <path d="M18.406,226.171C16.884,224.998 16.687,222.786 17.882,221.772C18.181,221.518 18.698,221.54 19.115,221.435C19.146,221.86 19.267,222.304 19.192,222.708C18.987,223.815 18.7,224.905 18.406,226.171Z" style="fill-rule:nonzero;"/>
                <path d="M33.251,262.276C33.699,262.888 33.945,263.179 34.142,263.502C34.654,264.342 35.186,265.175 35.624,266.056C35.804,266.419 35.872,266.928 35.777,267.314C35.733,267.494 35.179,267.539 34.856,267.645C34.765,267.261 34.541,266.851 34.606,266.498C34.841,265.221 34.158,264.967 33.162,264.788C32.808,264.724 32.261,264.144 32.289,263.848C32.331,263.392 32.792,262.977 33.251,262.276Z" style="fill-rule:nonzero;"/>
                <path d="M15.375,209.495C12.958,210.427 12.042,213.494 9.268,214.099C9.447,212.84 13.591,209.643 15.375,209.495Z" style="fill-rule:nonzero;"/>
                <path d="M28.768,298.881C29.285,299.842 29.838,300.768 28.806,301.607C28.588,301.784 27.675,301.549 27.583,301.303C27.161,300.173 27.705,299.405 28.768,298.881Z" style="fill-rule:nonzero;"/>
                <path d="M37.668,211.472C36.817,212.127 36.026,212.818 35.152,213.364C34.84,213.559 34.324,213.403 33.901,213.407C33.908,212.952 33.765,212.391 33.972,212.077C34.133,211.832 34.728,211.883 35.133,211.823C35.917,211.706 36.703,211.604 37.668,211.472Z" style="fill-rule:nonzero;"/>
                <path d="M28.955,284.865C28.015,285.149 27.804,284.427 27.932,283.821C28.109,282.981 28.563,282.204 29.11,281.463C29.722,282.696 29.88,283.837 28.923,284.892L28.955,284.865Z" style="fill-rule:nonzero;"/>
                <path d="M22.187,119.234C23.154,119.497 23.94,119.711 24.937,119.983C24.505,120.205 24.309,120.306 24.107,120.41C24.518,120.657 24.92,120.899 25.322,121.141C25.292,121.249 25.262,121.357 25.232,121.465C24.29,121.377 23.348,121.289 22.422,121.202C22.352,120.617 22.292,120.114 22.187,119.234Z" style="fill-rule:nonzero;"/>
                <path d="M35.694,272.5C36.153,273.142 36.545,273.593 36.782,274.119C36.82,274.203 35.98,274.918 35.855,274.837C35.317,274.483 34.893,273.941 34.428,273.467C34.763,273.212 35.097,272.956 35.694,272.5Z" style="fill-rule:nonzero;"/>
                <path d="M2.816,64.18C4.541,63.211 6.035,62.372 7.753,61.407C6.606,63.326 4.462,64.544 2.816,64.18Z" style="fill-rule:nonzero;"/>
                <path d="M48.454,50.694C47.709,51.203 47.299,51.705 46.97,51.653C46.526,51.584 46.144,51.088 45.736,50.776C46.088,50.403 46.408,49.785 46.803,49.728C47.188,49.674 47.65,50.193 48.454,50.694Z" style="fill-rule:nonzero;"/>
                <path d="M37.538,207.803C36.916,208.307 36.534,208.721 36.067,208.928C35.937,208.986 35.281,208.289 35.333,208.185C35.599,207.644 36.016,207.183 36.381,206.695C36.682,206.983 36.984,207.272 37.538,207.803Z" style="fill-rule:nonzero;"/>
                <path d="M54.834,268.896C54.135,269.441 53.742,269.981 53.332,269.995C53.009,270.006 52.346,269.294 52.402,269.037C52.5,268.592 52.983,268.069 53.411,267.931C53.679,267.843 54.141,268.4 54.834,268.896Z" style="fill-rule:nonzero;"/>
                <path d="M34.944,244.116C35.656,243.851 36.367,243.587 37.079,243.322C37.142,243.808 37.206,244.293 37.269,244.779C36.567,244.869 35.865,244.959 35.163,245.049C35.089,244.738 35.016,244.427 34.944,244.116Z" style="fill-rule:nonzero;"/>
                <path d="M4.033,117.568C4.577,118.308 5.128,118.752 5.059,119.032C4.948,119.483 4.428,119.826 4.081,120.215C3.748,119.885 3.172,119.573 3.147,119.22C3.118,118.812 3.575,118.366 4.033,117.568Z" style="fill-rule:nonzero;"/>
                <path d="M35.713,286.394C35.139,285.676 34.654,285.218 34.392,284.65C34.317,284.486 34.884,284.004 35.157,283.669C35.577,284.139 36.076,284.563 36.372,285.106C36.471,285.286 36.046,285.772 35.713,286.394Z" style="fill-rule:nonzero;"/>
                <path d="M40.176,103.378C39.451,104.84 38.727,106.302 38.002,107.764C37.825,107.674 37.649,107.584 37.472,107.494C38.164,106.002 38.856,104.51 39.548,103.018C39.758,103.138 39.967,103.258 40.176,103.378Z" style="fill-rule:nonzero;"/>
                <path d="M34.142,269.091C34.026,269.849 33.924,270.61 33.745,271.352C33.737,271.386 33.037,271.241 32.66,271.18C32.873,270.422 33.087,269.664 33.3,268.905C33.581,268.967 33.862,269.029 34.142,269.091Z" style="fill-rule:nonzero;"/>
                <path d="M28.922,284.892C29.019,285.713 29.169,286.535 29.17,287.356C29.17,287.537 28.641,287.718 28.356,287.899C28.231,287.62 27.941,287.283 28.01,287.072C28.257,286.315 28.626,285.6 28.951,284.867C28.955,284.865 28.922,284.892 28.922,284.892Z" style="fill-rule:nonzero;"/>
                <path d="M39.038,203.188C38.368,203.651 37.976,204.04 37.516,204.169C37.377,204.208 36.787,203.434 36.866,203.199C37.013,202.762 37.451,202.341 37.87,202.137C38.016,202.066 38.461,202.653 39.038,203.188Z" style="fill-rule:nonzero;"/>
                <path d="M33.342,250.165C34.001,250.893 34.685,251.6 35.303,252.364C35.478,252.58 35.56,252.986 35.498,253.26C35.459,253.433 34.983,253.686 34.863,253.614C34.628,253.473 34.478,253.146 34.339,252.871C33.913,252.025 33.508,251.167 33.095,250.314C33.178,250.264 33.26,250.215 33.342,250.165Z" style="fill-rule:nonzero;"/>
                <path d="M92.38,276.117C91.808,276.418 91.255,276.78 90.651,276.98C90.496,277.031 90,276.593 89.975,276.346C89.848,275.105 90.976,275.709 91.483,275.376C91.642,275.272 92.053,275.58 92.348,275.699C92.359,275.838 92.369,275.977 92.38,276.117Z" style="fill-rule:nonzero;"/>
                <path d="M10.146,61.011C11,60.202 11.854,59.392 12.709,58.583C12.881,58.779 13.053,58.975 13.225,59.171C12.369,59.978 11.512,60.785 10.656,61.592C10.486,61.398 10.316,61.204 10.146,61.011Z" style="fill-rule:nonzero;"/>
                <path d="M85.301,281.566C84.992,281.775 84.726,281.959 84.455,282.134C84.426,282.153 84.366,282.115 84.32,282.11C83.73,282.044 83.14,281.979 82.55,281.914C83.056,281.5 83.54,281.051 84.079,280.69C84.268,280.563 84.651,280.553 84.839,280.672C85.031,280.794 85.093,281.137 85.301,281.566Z" style="fill-rule:nonzero;"/>
                <path d="M34.72,260.107L32.463,260.107C33.063,259.358 33.456,258.868 33.848,258.378C34.271,258.825 34.695,259.273 35.118,259.72C34.985,259.849 34.852,259.978 34.72,260.107Z" style="fill-rule:nonzero;"/>
                <path d="M54.099,276.219C53.651,275.635 53.178,275.287 53.194,274.964C53.21,274.636 53.712,274.079 53.992,274.085C54.313,274.092 54.819,274.568 54.883,274.912C54.938,275.21 54.488,275.609 54.099,276.219Z" style="fill-rule:nonzero;"/>
                <path d="M28.042,271.411C28.319,270.242 28.519,269.396 28.784,268.279C29.747,270.064 29.586,270.883 28.042,271.411Z" style="fill-rule:nonzero;"/>
                <path d="M8.429,264.951C7.995,264.303 7.627,263.94 7.523,263.509C7.48,263.329 8.156,262.739 8.238,262.79C8.625,263.034 9.012,263.39 9.202,263.804C9.276,263.964 8.829,264.38 8.429,264.951Z" style="fill-rule:nonzero;"/>
                <path d="M5.16,230.865C5.076,230.275 4.965,229.901 4.988,229.537C5.005,229.262 5.193,228.999 5.305,228.73C5.563,228.858 5.915,228.918 6.057,229.13C6.298,229.487 6.406,229.939 6.628,230.496C6.128,230.621 5.563,230.763 5.16,230.865Z" style="fill-rule:nonzero;"/>
                <path d="M17.16,242.071C17.287,241.66 17.314,241.155 17.569,240.867C17.806,240.599 18.283,240.495 18.663,240.472C18.762,240.466 19.065,241.128 18.969,241.32C18.81,241.639 18.434,241.905 18.093,242.043C17.815,242.156 17.455,242.049 17.13,242.04C17.13,242.039 17.16,242.071 17.16,242.071Z" style="fill-rule:nonzero;"/>
                <path d="M8.152,5.058C9.18,2.949 9.293,2.89 11.12,3.586C10.048,4.118 9.243,4.517 8.152,5.058Z" style="fill-rule:nonzero;"/>
                <path d="M24.907,111.218C23.861,110.159 22.815,109.101 21.769,108.042C21.837,107.973 21.904,107.903 21.972,107.834C22.965,108.95 23.958,110.065 24.952,111.181C24.937,111.194 24.922,111.206 24.907,111.218Z" style="fill-rule:nonzero;"/>
                <path d="M40.553,188.123C39.992,188.622 39.637,188.938 39.282,189.255C39.048,188.956 38.582,188.603 38.633,188.372C38.718,187.989 39.083,187.572 39.435,187.397C39.603,187.314 40.013,187.756 40.553,188.123Z" style="fill-rule:nonzero;"/>
                <path d="M39.19,51.442C38.651,51.19 38.174,51.09 37.883,50.794C37.629,50.535 37.517,50.061 37.484,49.67C37.471,49.51 37.952,49.133 38.006,49.17C38.325,49.39 38.669,49.657 38.843,49.997C39.038,50.375 39.059,50.85 39.19,51.442Z" style="fill-rule:nonzero;"/>
                <path d="M31.8,250.18C31.132,250.496 30.761,250.798 30.387,250.802C30.168,250.804 29.944,250.331 29.722,250.071C30.033,249.787 30.317,249.338 30.665,249.276C30.909,249.232 31.243,249.712 31.8,250.18Z" style="fill-rule:nonzero;"/>
                <path d="M25.526,278.547C25.296,278.148 24.991,277.769 24.883,277.337C24.85,277.205 25.524,276.7 25.596,276.755C25.969,277.04 26.363,277.407 26.525,277.836C26.628,278.109 26.342,278.54 26.23,278.901C25.996,278.783 25.761,278.665 25.526,278.547Z" style="fill-rule:nonzero;"/>
                <path d="M95.611,274.144C95.161,274.567 94.813,275.087 94.621,275.031C94.27,274.929 94.012,274.487 93.715,274.186C93.977,273.912 94.22,273.448 94.506,273.418C94.789,273.389 95.116,273.797 95.611,274.144Z" style="fill-rule:nonzero;"/>
                <path d="M37.237,195.78C36.392,196.593 35.546,197.406 34.701,198.218C34.558,198.05 34.415,197.882 34.272,197.714C35.152,196.941 36.031,196.167 36.911,195.394C37.02,195.523 37.129,195.652 37.237,195.78Z" style="fill-rule:nonzero;"/>
                <path d="M37.537,260.978C37.783,261.549 38.058,261.881 37.999,262.126C37.914,262.473 37.583,262.756 37.357,263.066C37.09,262.801 36.572,262.487 36.61,262.281C36.678,261.903 37.073,261.589 37.537,260.978Z" style="fill-rule:nonzero;"/>
                <path d="M25.881,124.224C24.799,123.885 23.881,123.395 24.041,121.909C24.511,122.812 25.976,122.796 25.879,124.223C25.878,124.223 25.881,124.224 25.881,124.224Z" style="fill-rule:nonzero;"/>
                <path d="M13.03,78.206C12.988,77.493 12.946,76.78 12.903,76.067C13.131,76.042 13.359,76.018 13.586,75.993C13.68,76.704 13.774,77.415 13.867,78.126C13.589,78.153 13.309,78.18 13.03,78.206Z" style="fill-rule:nonzero;"/>
            </g>
        </g>
    </g>
</svg>
