<svg id="Livello_1" data-name="Livello 1" xmlns="http://www.w3.org/2000/svg" viewBox="0 0 924.78 924.78"><defs><style>.cls-1{fill:#fff;}</style></defs><title>Logo Barbas Vettoriale</title><path class="cls-1" d="M1125.34,865.47H200.56V-59.31h924.78ZM781,311.41l.85-.26c-.7-2-.83-4.57-2.2-5.84a94.15,94.15,0,0,0-12-9.34c-4.92-3.27-7.06-2.38-9.92,2.71-2.34,4.16-5.09,8.08-7.6,12.14-1,1.65-1.89,3.39-2.84,5.08-3.59,6.42-7,13-10.83,19.22q-6.33,10.28-13.37,20.09c-4.39,6.1-9,12.09-13.9,17.78-12.73,14.76-25.65,29.35-38.57,43.94-6.29,7.1-12.75,14-19.13,21.05-2,2.17-4.24,2.92-6.95,1.34a6.81,6.81,0,0,0-7.35-.07,5.63,5.63,0,0,1-4.35.29c-3.93-1.69-7.65-3.84-11.49-5.73-11.52-5.69-13.81-16.86-14.13-27.58A53.66,53.66,0,0,1,614,379c.74-1.35.52-3.24.75-4.87-1.83-.2-3.84-1-5.43-.48-3.34,1.06-5.88.4-8-2.18a34.35,34.35,0,0,1-3.89-5.3c-4.54-8.44-9-17-13.38-25.46-4.59-8.82-10.45-17.06-12.41-27.11a20.33,20.33,0,0,0-1.72-3.9c-1.77-4-3.92-7.95-5.18-12.13-1.36-4.52-2.83-9.33.6-13.8,1.54-2,2.25-4.26.19-6.33-2.21-2.23-4.29-.89-6.21.62-7.39,5.82-15,11.37-22.07,17.58-5.93,5.24-11.26,11.16-16.65,17-2.08,2.25-3.39,5.26-1.3,8.19,5.8,8.09,11.85,16,17.69,24.06,8.59,11.87,17,23.89,25.66,35.69,2.59,3.53,6,6.47,8.88,9.76,4.21,4.75,8.31,9.59,12.51,14.36,1.45,1.65,3.08,3.15,4.55,4.8C600,422.32,611.3,435.32,622.92,448c4.22,4.62,5.14,9.17,1.57,14.3-.89,1.28-2,2.37-2.88,3.69a127.55,127.55,0,0,0-7,11.63c-1.83,3.76-.77,5.49,3,7.41a14.72,14.72,0,0,1,4.67,3.33c2.75,3.28,5.92,3.8,9.33,1.71,4.09-2.5,7.94-5.39,11.85-8.16,4.25-3,6.24-2.29,8.1,2.46,3.7,9.46,7.57,18.84,11.47,28.22a17.34,17.34,0,0,0,2.7,4.26c3,3.64,6.9,4.35,11.57,2.28s6.77-5.42,6.17-10.12c-.82-6.5-2.53-12.58-6.79-17.88-3.66-4.54-6.74-9.55-10.12-14.32s-1-13.43,4.32-15.82c6-2.67,11.36-5.88,15.54-11.28,5.48-7.09,11.73-13.4,20.17-17.37a40.21,40.21,0,0,0,11.87-8.71q21.07-22.46,41.53-45.49c7.43-8.32,14.41-17,21.6-25.57,2.26-2.68,1.93-5.22.95-8.6-1.61-5.57-1.95-11.52-2.65-17.34-.1-.89.91-1.87,1.08-2.87a46.35,46.35,0,0,0,.84-7A31.82,31.82,0,0,0,781,311.41Zm-116.91-7c-1.18-2.31-2.47-5.13-4.05-7.78a26.55,26.55,0,0,0-3.84-4.88c-.89-.93-2.4-2.21-3.25-2-1.05.29-1.94,1.9-2.45,3.12a6.48,6.48,0,0,0-.19,3.45c1.06,6.14,2.41,12.24,3.28,18.4a26.36,26.36,0,0,1-.3,8.68c-.5,2.52-.64,4.58,1.4,6.38a9.69,9.69,0,0,1,3.3,8.75c-1,9.78-2,19.56-2.94,29.35-.36,3.71-1.29,7.54-.78,11.14,1.37,9.75,3.34,19.41,5.2,29.08a5,5,0,0,0,1.91,2.35c2.57-1.54,5.4-2.95,7.31-5.14.86-1,.44-4-.43-5.47a32,32,0,0,1-3.8-24.89,77.76,77.76,0,0,0,2.08-12.57c.3-4.09-.23-8.23-.19-12.35,0-6.14,2.46-9,8.43-10.31,7.75-1.72,11.28-8.72,8.77-16.25-2.89-8.72-5.14-17.42-3.23-27,1.35-6.8.45-14,.56-21.09a45.56,45.56,0,0,0,.05-6.18c-.21-1.66-.75-4.42-1.65-4.64-4-1-8.38-2.14-12.34-1.52-5,.78-9.71,1.16-14-1.35a165.45,165.45,0,0,1-14.69-10.16c-3.27-2.43-12.62-2.49-15.52.28a6.24,6.24,0,0,0-1.27,1.92c-1.79,4-3.36,8.15-5.34,12.07-1.66,3.28-1.62,6.23.59,9.1,1.65,2.16,3.49,4.19,5.14,6.35,1.09,1.43,2.49,2.89,2.88,4.54,1.65,6.94,3.51,13.89,4.27,20.95.9,8.23.63,16.59,1,24.88.5,10,2.69,20.11,1.38,29.8-1.36,10.05,2.3,19.68.13,29.75-.92,4.28,1.57,9.45-1.13,14.09a3.35,3.35,0,0,0,.17,2.65c2.82,5.95,5.68,11.88,8.71,17.71.41.78,2.3,1.66,2.75,1.36a4.15,4.15,0,0,0,1.64-3c-.14-10.74-.45-21.48-.7-32.23-.15-6.31-.4-12.63-.37-18.94q.09-14.61.54-29.21a43.83,43.83,0,0,1,1.13-9.5c1-4.06,2.42-7.85-.19-11.92-.82-1.28-.59-3.28-.68-5-.44-7.65-.48-15.34-1.33-22.94a75.87,75.87,0,0,0-3.55-14.94c-.8-2.46-1.51-4.32.76-6.23s4.16-2.39,6.66-.61A111.78,111.78,0,0,0,657.4,280a12.25,12.25,0,0,0,6.84,1.15c2.61-.3,4.23.35,4.67,2.75a20.87,20.87,0,0,1,0,6.06c-.29,2.43-1.49,4.88-1.27,7.22.52,5.5,1.79,10.92,2.42,16.4.18,1.54-.36,4.15-1.34,4.6A7.12,7.12,0,0,1,663,318c-1-.52-1.25-3.12-1.07-4.69C662.25,310.68,663.18,308.1,664.11,304.43ZM676.23,227c-1.54-5.91-2.84-14.92-6.26-23.05-4.66-11.08-11-21.48-16.51-32.2-3.94-7.6-5.64-15.76,3.13-22.6,2.25-1.76,4.16-4.12,6.65-5.36a27.72,27.72,0,0,1,10.09-3.15A10.44,10.44,0,0,0,683,127.21c-.75-2.65-.53-5.57-1-8.32-.36-2.08-.49-4.89-1.85-6-4.08-3.33-8.71-6-13.13-8.89-2.61-1.71-5.23-3.43-7.87-5.1-.69-.44-1.65-1.17-2.2-1a2.78,2.78,0,0,0-1.32,2.07,10,10,0,0,0,4.6,9.31c2.43,1.74,4.77,3.59,7.23,5.28,7,4.81,3.17,17.27-3.28,19-6.85,1.82-11.11,6.93-16.34,10.88-4.09,3.09-6.55,7-6.88,12.12-.33,5.26-1.83,11-.22,15.69,3.18,9.18,3.38,17.8-.65,26.39s-6.2,16.79-5.19,26.58c1.31,12.68,6.82,21.35,17.86,27.14,3.36,1.76,6.57,2.09,9.54,0C670,246.88,675.51,240,676.23,227Zm195.61,357.1v4c0,10.79-.14,21.58.08,32.36.06,3.34-.84,4.9-4.24,5.49a5,5,0,0,0-3.24,3.34c-.25,2.49,2.1,2.42,3.95,2.42,6,0,11.94.14,17.9-.09,1.44-.06,3.71-1.08,4.06-2.16.83-2.58-1-3.61-3.54-3.7-2.83-.1-3.9-1.49-3.84-4.5.19-10.4.07-20.8.07-31.2v-6c6.49-.26,12.89-1.72,15.83,6,.18.46.55,1.09,1,1.19,1.29.31,2.79.84,3.9.43.67-.25,1.16-2.13,1-3.19-.37-2.68-1.16-5.31-1.73-8s-2.31-3.67-5.07-3.65c-13.64.09-27.27.12-40.91,0-3,0-4.64,1.09-5.26,4-.46,2.17-1,4.33-1.44,6.49a24.27,24.27,0,0,1-2.45-7.06c-.62-2.54-2.27-3.47-4.88-3.42-11.82.23-23.64.41-35.46.45-10,0-10-.06-12.12,9.88-.31,1.45.06,3.91,1,4.57,2.27,1.54,3.9-.35,4.8-2.35,1.41-3.09,3.52-5.2,7-5.44,2.8-.19,5.62,0,8.73,0,0,12.59-.11,24.79.08,37,0,3.12-1,4.28-4,5-1.47.35-3.54,2.15-3.63,3.41-.2,2.72,2.36,2.42,4.31,2.42,5.71,0,11.43.15,17.13-.12,1.59-.08,4.12-1.12,4.48-2.26.82-2.6-1.35-3.47-3.71-3.58-2.86-.13-4-1.51-3.83-4.51.25-4.92.06-9.87.06-14.81V584c6.59-.17,13-1.56,16.14,6.31,1.12,2.76,9.61,2.78,11.52.38a1.08,1.08,0,0,0,.23-.31C858.76,582.61,865.16,583.65,871.84,584.13ZM595.05,606.88c6.54-5.27,8.58-8.06,9.05-12.33,1-9.54-5.26-16.42-16-17-7.65-.39-15.33-.43-23-.36-1.08,0-3,1.47-3,2.35-.08,1.06,1.36,3.12,2.26,3.18,3.78.28,4.22,2.36,4.18,5.51q-.21,16,0,32c0,3.16-.11,5.58-4.16,6-.91.09-1.89,2.16-2.26,3.48-.11.4,1.74,1.92,2.72,2q9.72.27,19.46,0c.93,0,2.6-1.38,2.56-2A5.3,5.3,0,0,0,585,626.2c-.8-.67-2.31-.41-3.31-.93s-2-1.41-2.06-2.19c-.2-4.64-.1-9.3-.1-15.23,2.18,1.22,3.94,1.67,4.85,2.8a94,94,0,0,1,8.46,11.66c4.13,7.2,10,10.69,18.24,9.62,1.38-.18,2.64-1.28,4-2a22.8,22.8,0,0,0-3-3.93c-1.32-1.16-3.45-1.52-4.51-2.82C603.23,617.89,599.19,612.34,595.05,606.88Zm-157.92,0a62.76,62.76,0,0,0,4.91-4.06c7.53-7.67,5-19.77-5-23.62a25.67,25.67,0,0,0-7.95-1.59q-10.71-.5-21.43-.35a4.59,4.59,0,0,0-3.52,2.34c-.67,2,.67,3.37,3,3.44,2.88.07,3.44,1.7,3.4,4.36-.14,11-.12,22.09,0,33.14,0,3-.07,5.24-3.91,5.69-.94.11-1.62,2.46-2.42,3.78,1.14.59,2.26,1.65,3.42,1.69,6.09.17,12.2.18,18.29,0,1.1,0,3.09-1.38,3-2a6,6,0,0,0-2.1-3.61c-.78-.67-2.34-.33-3.32-.87a3.67,3.67,0,0,1-1.88-2.33c-.18-4.63-.09-9.27-.09-15.27,2.29,1.41,4,2,4.93,3.14a94.45,94.45,0,0,1,8.68,12c4.1,7.21,10.06,10.16,18.07,9.21,1.38-.16,2.64-1.33,3.95-2-.88-1.27-1.56-2.8-2.7-3.76-1.55-1.29-3.91-1.77-5.12-3.25C445.1,617.68,441.17,612.19,437.13,606.84Zm56.62-4.79c3.8-3.44,6.6-7.06,5.91-12.3-1-7.24-6.79-11.88-15.71-12.22-7-.26-14-.41-21-.31-1.28,0-2.54,1.48-3.8,2.28,1.09,1.18,2,2.94,3.33,3.4,2.28.79,3.41,1.64,3.38,4.29-.14,11.56-.12,23.14,0,34.7,0,2.18-.54,3.53-2.77,3.85s-4.35,1.57-3.59,3.94c.34,1.07,3.05,1.94,4.7,2,7,.09,14-.08,21-.34a31.4,31.4,0,0,0,7.66-1.15c7.46-2.2,11.72-7.56,11.93-14.6C505,609.48,501.66,605.31,493.75,602.05Zm-160.37,0c.83-.89,1.61-1.73,2.38-2.58,3.13-3.4,4.3-7.25,3-11.83-1.69-5.87-7.3-9.8-15.09-10.1-6.87-.26-13.76-.4-20.63-.31-1.43,0-3.67,1-4.07,2.09-.83,2.22.85,3.3,3.1,3.87,1.18.29,2.94,1.71,2.95,2.65.19,13,.13,25.95.13,39-1.57.46-3.21.51-4.2,1.34A6.64,6.64,0,0,0,299,630c-.07.41,1.86,1.67,2.88,1.67,8.56,0,17.15.12,25.68-.51,9.35-.69,15.58-6.29,16.54-13.81C345,610.19,341.86,605.65,333.38,602.05Zm601.08,30.21c17.19,0,29.1-11.37,29.17-27.77s-11.9-27.89-29.41-27.9c-15.65,0-27.76,12.19-27.79,28C906.4,621.2,917.63,632.29,934.46,632.26ZM642.83,576.59c-15.8-.08-28.14,11.94-28.27,27.53-.14,16.64,10.85,28,27.16,28.14,17.86.12,29.86-11,30-27.69C671.83,588.1,660,576.67,642.83,576.59Zm355,55.67c17.24,0,29.09-11.31,29.13-27.76,0-16.78-11.86-28-29.73-27.91-15.5,0-27.41,12.38-27.37,28.38C970,621.35,981.15,632.28,997.88,632.26ZM516.75,584c0,12.28-.07,24.23.06,36.18,0,3.15-.06,5.57-4.11,5.95-.89.09-1.94,2.2-2.19,3.52-.1.48,1.9,2,3,2,11.82.14,23.64.06,35.46.11,2.43,0,3.9-.89,4.53-3.31.79-3,1.89-5.94,2.57-9a3.26,3.26,0,0,0-1-2.89,4.24,4.24,0,0,0-3.52,0c-1,.54-1.5,2.08-2.45,2.91-2.09,1.83-4.13,4.5-6.55,5-4.11.79-8.5.25-12.76,0a3,3,0,0,1-2-2.18c-.18-4.9-.09-9.81-.09-15.11,2.58,0,4.76.1,6.92,0,3.19-.19,5.91-.11,6.47,4.11.11.81,2.47,2,3.55,1.79.87-.16,1.87-2.15,2-3.39a80,80,0,0,0,0-11.27c-.1-1.33-1.29-2.57-2-3.85a42.63,42.63,0,0,0-3.88,2.77c-1,.92-1.75,2.92-2.77,3a83.12,83.12,0,0,1-10,.15V583.9c4,0,7.77-.09,11.52,0a8,8,0,0,1,7.18,4.58,8.46,8.46,0,0,0,2.94,3.39,2.41,2.41,0,0,0,3.71-2.56,45.12,45.12,0,0,0-1.93-9.11c-.54-1.42-2.62-3.19-4-3.21-11.3-.19-22.6,0-33.89.16-1,0-3,1.17-2.91,1.6a6.31,6.31,0,0,0,1.79,3.83C513.33,583.46,515,583.51,516.75,584Zm265.67,40.76c-.63.43-.92.8-1.25.84-2.48.33-4.67,1.38-3.73,4.11.37,1.06,3,1.77,4.65,1.85a139.94,139.94,0,0,0,14.77,0c1.42-.08,2.78-1.44,4.17-2.22-1-1.21-2-2.49-3.17-3.61-1.46-1.45-3.7-2.49-4.46-4.21-6-13.64-11.73-27.43-17.7-41.1-.66-1.52-2.38-2.58-3.61-3.85-1.28,1.27-3.08,2.31-3.77,3.85q-8.93,19.88-17.47,39.93c-1.23,2.88-2.44,5.26-6.05,5.73-.89.12-1.87,2.17-2.1,3.46-.1.51,1.68,1.94,2.65,2,4.65.24,9.33.27,14,0,1,0,2.78-1.31,2.88-2.17.12-1-1-2.48-1.93-3.25s-2.28-.76-3.46-1.1c3.85-12.36,3.85-12.36,16.1-12.36a14.54,14.54,0,0,1,3.1.07,3.13,3.13,0,0,1,2,1.28C779.63,617.62,781,621.23,782.42,624.78ZM382.29,625a10.52,10.52,0,0,1-1.93.78c-2.24.34-4.05,1.51-3.17,3.79.42,1.09,2.71,2,4.2,2,5.17.26,10.37.26,15.55,0,1.35-.06,2.64-1.35,4-2.07-1-1.25-1.8-3.17-3.08-3.61a7.1,7.1,0,0,1-4.82-4.47q-8.49-20.49-17.39-40.83c-.68-1.56-2.34-2.71-3.55-4-1.36,1.35-3.28,2.45-4,4.08-5.81,12.9-11.43,25.88-17,38.87-1.36,3.17-2.46,6.26-6.71,6.61-.76.06-2,2.17-1.84,3.21.09.86,1.8,2.12,2.85,2.18a126.11,126.11,0,0,0,13.61.07c1.1,0,3.07-1.46,3-2a6.32,6.32,0,0,0-2.22-3.5c-.75-.66-2.07-.66-3.36-1,1.83-4.35,3.49-8.28,5.18-12.31,4.72,0,9.27-.1,13.8.09a3.89,3.89,0,0,1,2.79,1.85C379.66,618,380.86,621.37,382.29,625Zm344.94-40.9c6.84-.46,13.17-1.37,16.23,6.42.36.92,2.78,1,4.24,1.51.41-1.31,1.25-2.66,1.15-3.94a53.38,53.38,0,0,0-1.46-7.22c-.64-2.8-2.24-4-5.28-4-13.62.14-27.24.1-40.86,0-2.74,0-4.52.85-5.13,3.61a60.85,60.85,0,0,0-1.58,7.61c-.11,1.23.8,2.56,1.25,3.85,1.4-.58,3.34-.75,4.12-1.78,4.79-6.44,8.1-7.74,16.37-5.72,0,11.88-.12,23.82.07,35.75.06,3.45-.69,5.45-4.45,5.6-2.36.1-3.84,1.67-3.17,3.84.31,1,2.49,1.91,3.85,2,5.95.2,11.92.07,17.89.08,2,0,4.19.11,4.39-2.59.18-2.52-1.59-3.14-3.78-3.41-1.65-.19-3.86,0-3.86-2.76C727.23,610.13,727.23,597.28,727.23,584.1ZM621.16,112.36c-3.68-.2-5,1.14-4.59,4.84a14.82,14.82,0,0,0,.49,2.27,20.63,20.63,0,0,1-1.86,16.45c-2.35,4.2-3.19,9.26-4.59,14-.17.56.25,1.82.59,1.9.72.16,2,0,2.29-.48a21.5,21.5,0,0,0,2.11-4.53c1.28-3.66,2.41-7.38,3.68-11,2-5.84,4.27-11.61,6.15-17.5C626.63,114.46,625.07,112.57,621.16,112.36ZM595.43,257.82c-.73-1.08-1.6-3.77-3.3-4.51-1.44-.61-4.59.49-5.63,1.86s-.52,4.05.16,5.83c.76,2,2.46,3.62,3.81,5.36,1.85,2.4,3.28,1.12,3.89-.85S595,261.16,595.43,257.82Zm-.95-31.94c1.09-1.22,2.11-1.91,2.49-2.85a40.79,40.79,0,0,0,1.71-6.07,3.57,3.57,0,0,0-1.47-.76,67.58,67.58,0,0,0-4.89,6.8C592.12,223.34,593.5,224.62,594.48,225.88Zm15.37,241.9c-1.89-1.47-3.37-3.36-4.23-3.11a5.1,5.1,0,0,0-3,3.5c-.13,1,2,3.33,2.71,3.17C606.72,471,607.87,469.43,609.85,467.78ZM628.4,182.23l-2.54-2.78A49.57,49.57,0,0,0,622.7,185c-.22.5.8,1.53,1.24,2.32Z" transform="translate(-200.56 59.31)"/><path d="M781,311.41a31.82,31.82,0,0,1,.78,5.35,46.35,46.35,0,0,1-.84,7c-.17,1-1.18,2-1.08,2.87.7,5.82,1,11.77,2.65,17.34,1,3.38,1.31,5.92-.95,8.6-7.19,8.53-14.17,17.25-21.6,25.57q-20.51,23-41.53,45.49a40.21,40.21,0,0,1-11.87,8.71c-8.44,4-14.69,10.28-20.17,17.37-4.18,5.4-9.57,8.61-15.54,11.28-5.34,2.39-7.68,11.09-4.32,15.82s6.46,9.78,10.12,14.32c4.26,5.3,6,11.38,6.79,17.88.6,4.7-1.45,8-6.17,10.12s-8.56,1.36-11.57-2.28a17.34,17.34,0,0,1-2.7-4.26c-3.9-9.38-7.77-18.76-11.47-28.22-1.86-4.75-3.85-5.46-8.1-2.46-3.91,2.77-7.76,5.66-11.85,8.16-3.41,2.09-6.58,1.57-9.33-1.71a14.72,14.72,0,0,0-4.67-3.33c-3.76-1.92-4.82-3.65-3-7.41a127.55,127.55,0,0,1,7-11.63c.83-1.32,2-2.41,2.88-3.69,3.57-5.13,2.65-9.68-1.57-14.3-11.62-12.71-22.91-25.71-34.35-38.57-1.47-1.65-3.1-3.15-4.55-4.8-4.2-4.77-8.3-9.61-12.51-14.36-2.92-3.29-6.29-6.23-8.88-9.76-8.69-11.8-17.07-23.82-25.66-35.69-5.84-8.07-11.89-16-17.69-24.06-2.09-2.93-.78-5.94,1.3-8.19,5.39-5.81,10.72-11.73,16.65-17,7-6.21,14.68-11.76,22.07-17.58,1.92-1.51,4-2.85,6.21-.62,2.06,2.07,1.35,4.32-.19,6.33-3.43,4.47-2,9.28-.6,13.8,1.26,4.18,3.41,8.1,5.18,12.13a20.33,20.33,0,0,1,1.72,3.9c2,10.05,7.82,18.29,12.41,27.11,4.42,8.51,8.84,17,13.38,25.46a34.35,34.35,0,0,0,3.89,5.3c2.12,2.58,4.66,3.24,8,2.18,1.59-.51,3.6.28,5.43.48-.23,1.63,0,3.52-.75,4.87a53.66,53.66,0,0,0-6.7,27.24c.32,10.72,2.61,21.89,14.13,27.58,3.84,1.89,7.56,4,11.49,5.73a5.63,5.63,0,0,0,4.35-.29,6.81,6.81,0,0,1,7.35.07c2.71,1.58,5,.83,6.95-1.34,6.38-7,12.84-14,19.13-21.05,12.92-14.59,25.84-29.18,38.57-43.94,4.92-5.69,9.51-11.68,13.9-17.78q7-9.79,13.37-20.09c3.85-6.26,7.24-12.8,10.83-19.22.95-1.69,1.82-3.43,2.84-5.08,2.51-4.06,5.26-8,7.6-12.14,2.86-5.09,5-6,9.92-2.71a94.15,94.15,0,0,1,12,9.34c1.37,1.27,1.5,3.86,2.2,5.84Z" transform="translate(-200.56 59.31)"/><path d="M664.11,304.43c-.93,3.67-1.86,6.25-2.17,8.91-.18,1.57.12,4.17,1.07,4.69a7.12,7.12,0,0,0,5.67.15c1-.45,1.52-3.06,1.34-4.6-.63-5.48-1.9-10.9-2.42-16.4-.22-2.34,1-4.79,1.27-7.22a20.87,20.87,0,0,0,0-6.06c-.44-2.4-2.06-3-4.67-2.75A12.25,12.25,0,0,1,657.4,280a111.78,111.78,0,0,1-11.4-7.48c-2.5-1.78-4.53-1.18-6.66.61s-1.56,3.77-.76,6.23a75.87,75.87,0,0,1,3.55,14.94c.85,7.6.89,15.29,1.33,22.94.09,1.68-.14,3.68.68,5,2.61,4.07,1.24,7.86.19,11.92a43.83,43.83,0,0,0-1.13,9.5q-.44,14.6-.54,29.21c0,6.31.22,12.63.37,18.94.25,10.75.56,21.49.7,32.23a4.15,4.15,0,0,1-1.64,3c-.45.3-2.34-.58-2.75-1.36-3-5.83-5.89-11.76-8.71-17.71a3.35,3.35,0,0,1-.17-2.65c2.7-4.64.21-9.81,1.13-14.09,2.17-10.07-1.49-19.7-.13-29.75,1.31-9.69-.88-19.84-1.38-29.8-.41-8.29-.14-16.65-1-24.88-.76-7.06-2.62-14-4.27-20.95-.39-1.65-1.79-3.11-2.88-4.54-1.65-2.16-3.49-4.19-5.14-6.35-2.21-2.87-2.25-5.82-.59-9.1,2-3.92,3.55-8.05,5.34-12.07a6.24,6.24,0,0,1,1.27-1.92c2.9-2.77,12.25-2.71,15.52-.28A165.45,165.45,0,0,0,653,261.72c4.27,2.51,9,2.13,14,1.35,4-.62,8.31.53,12.34,1.52.9.22,1.44,3,1.65,4.64a45.56,45.56,0,0,1-.05,6.18c-.11,7,.79,14.29-.56,21.09-1.91,9.6.34,18.3,3.23,27,2.51,7.53-1,14.53-8.77,16.25-6,1.32-8.38,4.17-8.43,10.31,0,4.12.49,8.26.19,12.35A77.76,77.76,0,0,1,664.48,375a32,32,0,0,0,3.8,24.89c.87,1.48,1.29,4.47.43,5.47-1.91,2.19-4.74,3.6-7.31,5.14a5,5,0,0,1-1.91-2.35c-1.86-9.67-3.83-19.33-5.2-29.08-.51-3.6.42-7.43.78-11.14.95-9.79,2-19.57,2.94-29.35a9.69,9.69,0,0,0-3.3-8.75c-2-1.8-1.9-3.86-1.4-6.38a26.36,26.36,0,0,0,.3-8.68c-.87-6.16-2.22-12.26-3.28-18.4a6.48,6.48,0,0,1,.19-3.45c.51-1.22,1.4-2.83,2.45-3.12.85-.24,2.36,1,3.25,2a26.55,26.55,0,0,1,3.84,4.88C661.64,299.3,662.93,302.12,664.11,304.43Z" transform="translate(-200.56 59.31)"/><path d="M676.23,227c-.72,13-6.27,19.85-13.91,25.32-3,2.12-6.18,1.79-9.54,0-11-5.79-16.55-14.46-17.86-27.14-1-9.79,1.21-18.09,5.19-26.58s3.83-17.21.65-26.39c-1.61-4.65-.11-10.43.22-15.69.33-5.08,2.79-9,6.88-12.12,5.23-4,9.49-9.06,16.34-10.88,6.45-1.72,10.24-14.18,3.28-19-2.46-1.69-4.8-3.54-7.23-5.28a10,10,0,0,1-4.6-9.31A2.78,2.78,0,0,1,657,97.93c.55-.2,1.51.53,2.2,1,2.64,1.67,5.26,3.39,7.87,5.1,4.42,2.91,9.05,5.56,13.13,8.89,1.36,1.11,1.49,3.92,1.85,6,.49,2.75.27,5.67,1,8.32a10.44,10.44,0,0,1-9.71,13.46,27.72,27.72,0,0,0-10.09,3.15c-2.49,1.24-4.4,3.6-6.65,5.36-8.77,6.84-7.07,15-3.13,22.6C659,182.5,665.31,192.9,670,204,673.39,212.11,674.69,221.12,676.23,227ZM654,223.49a28.72,28.72,0,0,0,.07,5.84,82.19,82.19,0,0,0,3.3,12.6c.42,1.15,2.87,1.55,4.39,2.3.55-1.33,1.66-2.7,1.55-4a99.28,99.28,0,0,0-1.81-11.33c-1.13-5.42-2.32-10.84-3.77-16.19-.36-1.32-1.78-2.35-2.72-3.51-.52,1.27-1.45,2.53-1.47,3.81C653.45,216.4,653.78,219.76,654,223.49Z" transform="translate(-200.56 59.31)"/><path d="M871.84,584.13c-6.68-.48-13.08-1.52-16.07,6.27a1.08,1.08,0,0,1-.23.31c-1.91,2.4-10.4,2.38-11.52-.38-3.19-7.87-9.55-6.48-16.14-6.31v22.43c0,4.94.19,9.89-.06,14.81-.15,3,1,4.38,3.83,4.51,2.36.11,4.53,1,3.71,3.58-.36,1.14-2.89,2.18-4.48,2.26-5.7.27-11.42.11-17.13.12-2,0-4.51.3-4.31-2.42.09-1.26,2.16-3.06,3.63-3.41,2.92-.68,4-1.84,4-5-.19-12.19-.08-24.39-.08-37-3.11,0-5.93-.15-8.73,0-3.46.24-5.57,2.35-7,5.44-.9,2-2.53,3.89-4.8,2.35-1-.66-1.33-3.12-1-4.57,2.07-9.94,2.15-9.84,12.12-9.88,11.82,0,23.64-.22,35.46-.45,2.61,0,4.26.88,4.88,3.42a24.27,24.27,0,0,0,2.45,7.06c.48-2.16,1-4.32,1.44-6.49.62-2.86,2.25-4,5.26-4,13.64.13,27.27.1,40.91,0,2.76,0,4.47.87,5.07,3.65s1.36,5.29,1.73,8c.14,1.06-.35,2.94-1,3.19-1.11.41-2.61-.12-3.9-.43-.4-.1-.77-.73-1-1.19-2.94-7.76-9.34-6.3-15.83-6v6c0,10.4.12,20.8-.07,31.2-.06,3,1,4.4,3.84,4.5,2.51.09,4.37,1.12,3.54,3.7-.35,1.08-2.62,2.1-4.06,2.16-6,.23-11.94.1-17.9.09-1.85,0-4.2.07-3.95-2.42a5,5,0,0,1,3.24-3.34c3.4-.59,4.3-2.15,4.24-5.49-.22-10.78-.08-21.57-.08-32.36Z" transform="translate(-200.56 59.31)"/><path d="M595.05,606.88c4.14,5.46,8.18,11,12.49,16.34,1.06,1.3,3.19,1.66,4.51,2.82a22.8,22.8,0,0,1,3,3.93c-1.32.68-2.58,1.78-4,2-8.27,1.07-14.11-2.42-18.24-9.62a94,94,0,0,0-8.46-11.66c-.91-1.13-2.67-1.58-4.85-2.8,0,5.93-.1,10.59.1,15.23,0,.78,1.2,1.73,2.06,2.19s2.51.26,3.31.93a5.3,5.3,0,0,1,1.92,3.37c0,.67-1.63,2-2.56,2q-9.74.27-19.46,0c-1,0-2.83-1.55-2.72-2,.37-1.32,1.35-3.39,2.26-3.48,4.05-.38,4.2-2.8,4.16-6q-.18-16,0-32c0-3.15-.4-5.23-4.18-5.51-.9-.06-2.34-2.12-2.26-3.18.06-.88,2-2.34,3-2.35,7.66-.07,15.34,0,23,.36,10.69.55,17,7.43,16,17C603.63,598.82,601.59,601.61,595.05,606.88Zm-15.36-5.1c6.31.62,10.14-.55,11.76-3.38s1.26-9.12-1.05-11.46c-3-3-6.71-3.41-10.71-2.85Z" transform="translate(-200.56 59.31)"/><path d="M437.13,606.84c4,5.35,8,10.84,12.24,16,1.21,1.48,3.57,2,5.12,3.25,1.14,1,1.82,2.49,2.7,3.76-1.31.7-2.57,1.87-3.95,2-8,1-14-2-18.07-9.21a94.45,94.45,0,0,0-8.68-12c-.94-1.17-2.64-1.73-4.93-3.14,0,6-.09,10.64.09,15.27a3.67,3.67,0,0,0,1.88,2.33c1,.54,2.54.2,3.32.87a6,6,0,0,1,2.1,3.61c.06.58-1.93,1.93-3,2-6.09.2-12.2.19-18.29,0-1.16,0-2.28-1.1-3.42-1.69.8-1.32,1.48-3.67,2.42-3.78,3.84-.45,3.94-2.72,3.91-5.69-.11-11-.13-22.1,0-33.14,0-2.66-.52-4.29-3.4-4.36-2.3-.07-3.64-1.4-3-3.44a4.59,4.59,0,0,1,3.52-2.34q10.71-.15,21.43.35a25.67,25.67,0,0,1,7.95,1.59c10,3.85,12.49,16,5,23.62A62.76,62.76,0,0,1,437.13,606.84Zm-15.38-22.77v17.81c4.34.29,8.72.81,11.43-3.12a9.57,9.57,0,0,0,0-10.71C430.61,583.85,426.32,583.64,421.75,584.07Z" transform="translate(-200.56 59.31)"/><path d="M493.75,602.05c7.91,3.26,11.22,7.43,11,13.5-.21,7-4.47,12.4-11.93,14.6a31.4,31.4,0,0,1-7.66,1.15c-7,.26-14,.43-21,.34-1.65,0-4.36-.89-4.7-2-.76-2.37,1.25-3.6,3.59-3.94s2.78-1.67,2.77-3.85c-.11-11.56-.13-23.14,0-34.7,0-2.65-1.1-3.5-3.38-4.29-1.35-.46-2.24-2.22-3.33-3.4,1.26-.8,2.52-2.26,3.8-2.28,7-.1,14,0,21,.31,8.92.34,14.76,5,15.71,12.22C500.35,595,497.55,598.61,493.75,602.05Zm-17.05,4v13.54c0,4.94.64,5.56,5.51,5.35a24.8,24.8,0,0,0,2.7-.31c5.27-.84,7.45-2.8,7.86-7,.5-5.1-1.59-8.56-6.56-10C483.4,606.79,480.41,606.64,476.7,606.07Zm.22-22v15.6c7,.73,10.78-1.79,11.17-7.18C488.5,586.71,485.33,584.23,476.92,584Z" transform="translate(-200.56 59.31)"/><path d="M333.38,602.05c8.48,3.6,11.62,8.14,10.71,15.29-1,7.52-7.19,13.12-16.54,13.81-8.53.63-17.12.49-25.68.51-1,0-2.95-1.26-2.88-1.67a6.64,6.64,0,0,1,1.94-3.77c1-.83,2.63-.88,4.2-1.34,0-13.09.06-26.07-.13-39,0-.94-1.77-2.36-2.95-2.65-2.25-.57-3.93-1.65-3.1-3.87.4-1.09,2.64-2.07,4.07-2.09,6.87-.09,13.76,0,20.63.31,7.79.3,13.4,4.23,15.09,10.1,1.32,4.58.15,8.43-3,11.83C335,600.32,334.21,601.16,333.38,602.05ZM316.2,606V619.3c0,5.4.83,6.15,6.34,5.62.77-.07,1.54-.24,2.3-.37,4.89-.84,7-2.85,7.48-7,.5-4.63-1.52-8.24-6-9.66C323.29,606.91,320,606.67,316.2,606Zm.18-6.31c7.31.66,11.3-2.23,11.25-8,0-5.38-4-8-11.25-7.42Z" transform="translate(-200.56 59.31)"/><path d="M934.46,632.26c-16.83,0-28.06-11.06-28-27.66,0-15.82,12.14-28,27.79-28,17.51,0,29.48,11.37,29.41,27.9S951.65,632.24,934.46,632.26Zm-16.31-31.55c.13,6.19,1.17,12.16,4.7,17.42,4,5.94,9.73,8,16.6,6.88,6-1,10.63-5.87,12-12.39a30.83,30.83,0,0,0-2.08-18.31c-3.43-8.23-11.24-12.28-19.56-10.4C922.53,585.55,918.12,591.92,918.15,600.71Z" transform="translate(-200.56 59.31)"/><path d="M642.83,576.59c17.21.08,29,11.51,28.88,28-.13,16.73-12.13,27.81-30,27.69-16.31-.11-27.3-11.5-27.16-28.14C614.69,588.53,627,576.51,642.83,576.59Zm-16.54,24.83c.18,5.92,1.26,12.39,5.57,17.88s10,7,16.38,5.51,10-5.84,11.28-12.1a30.94,30.94,0,0,0-2-18.32c-3.36-8.23-11.15-12.32-19.51-10.5C630.72,585.48,626.25,591.87,626.29,601.42Z" transform="translate(-200.56 59.31)"/><path d="M997.88,632.26c-16.73,0-27.93-10.91-28-27.29,0-16,11.87-28.35,27.37-28.38,17.87,0,29.77,11.13,29.73,27.91C1027,621,1015.12,632.24,997.88,632.26Zm-16.26-30.88c.09,6,1.26,11.63,4.61,16.66,4,6,9.68,8.21,16.54,7,6.52-1.21,10.51-5.51,12-11.89a29.85,29.85,0,0,0-1.64-18c-3.53-8.88-11.19-13.15-19.79-11.24C985.8,585.54,981.49,592,981.62,601.38Z" transform="translate(-200.56 59.31)"/><path d="M516.75,584c-1.76-.51-3.42-.56-4.41-1.41a6.31,6.31,0,0,1-1.79-3.83c-.06-.43,1.87-1.59,2.91-1.6,11.29-.2,22.59-.35,33.89-.16,1.41,0,3.49,1.79,4,3.21a45.12,45.12,0,0,1,1.93,9.11,2.41,2.41,0,0,1-3.71,2.56,8.46,8.46,0,0,1-2.94-3.39,8,8,0,0,0-7.18-4.58c-3.75-.12-7.5,0-11.52,0v16.58a83.12,83.12,0,0,0,10-.15c1-.12,1.73-2.12,2.77-3a42.63,42.63,0,0,1,3.88-2.77c.69,1.28,1.88,2.52,2,3.85a80,80,0,0,1,0,11.27c-.08,1.24-1.08,3.23-2,3.39-1.08.21-3.44-1-3.55-1.79-.56-4.22-3.28-4.3-6.47-4.11-2.16.13-4.34,0-6.92,0,0,5.3-.09,10.21.09,15.11a3,3,0,0,0,2,2.18c4.26.24,8.65.78,12.76,0,2.42-.47,4.46-3.14,6.55-5,.95-.83,1.41-2.37,2.45-2.91a4.24,4.24,0,0,1,3.52,0,3.26,3.26,0,0,1,1,2.89c-.68,3-1.78,6-2.57,9-.63,2.42-2.1,3.32-4.53,3.31-11.82,0-23.64,0-35.46-.11-1.05,0-3.05-1.5-3-2,.25-1.32,1.3-3.43,2.19-3.52,4-.38,4.14-2.8,4.11-5.95C516.68,608.25,516.75,596.3,516.75,584Z" transform="translate(-200.56 59.31)"/><path d="M782.42,624.78c-1.42-3.55-2.79-7.16-4.35-10.68a3.13,3.13,0,0,0-2-1.28,14.54,14.54,0,0,0-3.1-.07c-12.25,0-12.25,0-16.1,12.36,1.18.34,2.58.39,3.46,1.1s2.05,2.22,1.93,3.25c-.1.86-1.83,2.12-2.88,2.17-4.66.22-9.34.19-14,0-1,0-2.75-1.47-2.65-2,.23-1.29,1.21-3.34,2.1-3.46,3.61-.47,4.82-2.85,6.05-5.73q8.58-20,17.47-39.93c.69-1.54,2.49-2.58,3.77-3.85,1.23,1.27,2.95,2.33,3.61,3.85,6,13.67,11.67,27.46,17.7,41.1.76,1.72,3,2.76,4.46,4.21,1.13,1.12,2.12,2.4,3.17,3.61-1.39.78-2.75,2.14-4.17,2.22a139.94,139.94,0,0,1-14.77,0c-1.64-.08-4.28-.79-4.65-1.85-.94-2.73,1.25-3.78,3.73-4.11C781.5,625.58,781.79,625.21,782.42,624.78ZM775,606.25c-1.75-4.36-3.33-8.32-5.14-12.84l-5.3,12.84Z" transform="translate(-200.56 59.31)"/><path d="M382.29,625c-1.43-3.63-2.63-7-4.16-10.31a3.89,3.89,0,0,0-2.79-1.85c-4.53-.19-9.08-.09-13.8-.09-1.69,4-3.35,8-5.18,12.31,1.29.36,2.61.36,3.36,1a6.32,6.32,0,0,1,2.22,3.5c.07.59-1.9,2-3,2a126.11,126.11,0,0,1-13.61-.07c-1.05-.06-2.76-1.32-2.85-2.18-.12-1,1.08-3.15,1.84-3.21,4.25-.35,5.35-3.44,6.71-6.61,5.59-13,11.21-26,17-38.87.73-1.63,2.65-2.73,4-4.08,1.21,1.34,2.87,2.49,3.55,4Q384.49,601,393,621.49a7.1,7.1,0,0,0,4.82,4.47c1.28.44,2.07,2.36,3.08,3.61-1.32.72-2.61,2-4,2.07-5.18.23-10.38.23-15.55,0-1.49-.07-3.78-1-4.2-2-.88-2.28.93-3.45,3.17-3.79A10.52,10.52,0,0,0,382.29,625Zm-7.51-18.71-5.18-12.9-5.26,12.9Z" transform="translate(-200.56 59.31)"/><path d="M727.23,584.1c0,13.18,0,26,0,38.87,0,2.75,2.21,2.57,3.86,2.76,2.19.27,4,.89,3.78,3.41-.2,2.7-2.39,2.59-4.39,2.59-6,0-11.94.12-17.89-.08-1.36,0-3.54-1-3.85-2-.67-2.17.81-3.74,3.17-3.84,3.76-.15,4.51-2.15,4.45-5.6-.19-11.93-.07-23.87-.07-35.75-8.27-2-11.58-.72-16.37,5.72-.78,1-2.72,1.2-4.12,1.78-.45-1.29-1.36-2.62-1.25-3.85a60.85,60.85,0,0,1,1.58-7.61c.61-2.76,2.39-3.63,5.13-3.61,13.62.08,27.24.12,40.86,0,3,0,4.64,1.16,5.28,4a53.38,53.38,0,0,1,1.46,7.22c.1,1.28-.74,2.63-1.15,3.94-1.46-.48-3.88-.59-4.24-1.51C740.4,582.73,734.07,583.64,727.23,584.1Z" transform="translate(-200.56 59.31)"/><path d="M621.16,112.36c3.91.21,5.47,2.1,4.27,5.88-1.88,5.89-4.12,11.66-6.15,17.5-1.27,3.66-2.4,7.38-3.68,11a21.5,21.5,0,0,1-2.11,4.53c-.32.49-1.57.64-2.29.48-.34-.08-.76-1.34-.59-1.9,1.4-4.71,2.24-9.77,4.59-14a20.63,20.63,0,0,0,1.86-16.45,14.82,14.82,0,0,1-.49-2.27C616.19,113.5,617.48,112.16,621.16,112.36Z" transform="translate(-200.56 59.31)"/><path d="M595.43,257.82c-.43,3.34-.42,5.62-1.07,7.69s-2,3.25-3.89.85c-1.35-1.74-3.05-3.37-3.81-5.36-.68-1.78-1.1-4.59-.16-5.83s4.19-2.47,5.63-1.86C593.83,254.05,594.7,256.74,595.43,257.82Z" transform="translate(-200.56 59.31)"/><path d="M594.48,225.88c-1-1.26-2.36-2.54-2.16-2.88a67.58,67.58,0,0,1,4.89-6.8,3.57,3.57,0,0,1,1.47.76A40.79,40.79,0,0,1,597,223C596.59,224,595.57,224.66,594.48,225.88Z" transform="translate(-200.56 59.31)"/><path d="M609.85,467.78c-2,1.65-3.13,3.25-4.57,3.56-.71.16-2.84-2.18-2.71-3.17a5.1,5.1,0,0,1,3-3.5C606.48,464.42,608,466.31,609.85,467.78Z" transform="translate(-200.56 59.31)"/><path d="M628.4,182.23l-4.46,5.05c-.44-.79-1.46-1.82-1.24-2.32a49.57,49.57,0,0,1,3.16-5.51Z" transform="translate(-200.56 59.31)"/><path class="cls-1" d="M654,223.49c-.2-3.73-.53-7.09-.46-10.44,0-1.28,1-2.54,1.47-3.81.94,1.16,2.36,2.19,2.72,3.51,1.45,5.35,2.64,10.77,3.77,16.19a99.28,99.28,0,0,1,1.81,11.33c.11,1.26-1,2.63-1.55,4-1.52-.75-4-1.15-4.39-2.3a82.19,82.19,0,0,1-3.3-12.6A28.72,28.72,0,0,1,654,223.49Z" transform="translate(-200.56 59.31)"/><path class="cls-1" d="M579.69,601.78V584.09c4-.56,7.74-.16,10.71,2.85,2.31,2.34,2.71,8.54,1.05,11.46S586,602.4,579.69,601.78Z" transform="translate(-200.56 59.31)"/><path class="cls-1" d="M421.75,584.07c4.57-.43,8.86-.22,11.44,4a9.57,9.57,0,0,1,0,10.71c-2.71,3.93-7.09,3.41-11.43,3.12Z" transform="translate(-200.56 59.31)"/><path class="cls-1" d="M476.7,606.07c3.71.57,6.7.72,9.51,1.54,5,1.45,7.06,4.91,6.56,10-.41,4.23-2.59,6.19-7.86,7a24.8,24.8,0,0,1-2.7.31c-4.87.21-5.5-.41-5.51-5.35Z" transform="translate(-200.56 59.31)"/><path class="cls-1" d="M476.92,584c8.41.2,11.58,2.68,11.17,8.42-.39,5.39-4.21,7.91-11.17,7.18Z" transform="translate(-200.56 59.31)"/><path class="cls-1" d="M316.2,606c3.84.68,7.09.92,10.11,1.88,4.49,1.42,6.51,5,6,9.66-.45,4.17-2.59,6.18-7.48,7-.76.13-1.53.3-2.3.37-5.51.53-6.34-.22-6.34-5.62Z" transform="translate(-200.56 59.31)"/><path class="cls-1" d="M316.38,599.68V584.25c7.27-.59,11.21,2,11.25,7.42C327.68,597.45,323.69,600.34,316.38,599.68Z" transform="translate(-200.56 59.31)"/><path class="cls-1" d="M918.16,600.7c0-8.78,4.37-15.15,11.62-16.79,8.32-1.88,16.13,2.17,19.56,10.4a30.83,30.83,0,0,1,2.08,18.31c-1.34,6.52-6,11.42-12,12.39-6.87,1.11-12.62-.94-16.6-6.88C919.32,612.87,918.28,606.9,918.16,600.7Z" transform="translate(-200.56 59.31)"/><path class="cls-1" d="M626.29,601.42c0-9.55,4.43-15.94,11.7-17.53,8.36-1.82,16.15,2.27,19.51,10.5a30.94,30.94,0,0,1,2,18.32c-1.32,6.26-5,10.65-11.28,12.1s-12.13-.1-16.38-5.51S626.47,607.34,626.29,601.42Z" transform="translate(-200.56 59.31)"/><path class="cls-1" d="M981.62,601.38c-.13-9.37,4.18-15.84,11.68-17.49,8.6-1.91,16.26,2.36,19.79,11.24a29.85,29.85,0,0,1,1.64,18c-1.45,6.38-5.44,10.68-12,11.89-6.86,1.26-12.58-1-16.54-7C982.88,613,981.71,607.34,981.62,601.38Z" transform="translate(-200.56 59.31)"/><path class="cls-1" d="M775,606.25H764.51l5.3-12.84C771.62,597.93,773.2,601.89,775,606.25Z" transform="translate(-200.56 59.31)"/><path class="cls-1" d="M374.78,606.29H364.34l5.26-12.9Z" transform="translate(-200.56 59.31)"/></svg>