<?xml version="1.0" encoding="utf-8"?>
<!-- Generator: Adobe Illustrator 17.0.0, SVG Export Plug-In . SVG Version: 6.00 Build 0)  -->
<!DOCTYPE svg PUBLIC "-//W3C//DTD SVG 1.1//EN" "http://www.w3.org/Graphics/SVG/1.1/DTD/svg11.dtd">
<svg version="1.1" id="Capa_1" xmlns="http://www.w3.org/2000/svg" xmlns:xlink="http://www.w3.org/1999/xlink" x="0px" y="0px"
	 width="21.986px" height="35.314px" viewBox="0 0 21.986 35.314" enable-background="new 0 0 21.986 35.314" xml:space="preserve">
<g>
	<path fill="#FFFFFF" d="M7.89,23.314c-0.15,0.647-0.417,1.425-0.497,2.22c-0.154,1.531,0.545,2.505,1.996,2.977
		c0.753,0.245,1.607,0.005,2.138-0.605c1.722-1.977,3.534-3.886,5.136-5.956c1.204-1.555,2.168-3.302,3.183-4.997
		c0.379-0.633,0.671-0.58,1.217-0.209c0.817,0.555,1.001,1.229,0.829,2.164c-0.099,0.535,0.092,1.119,0.094,1.681
		c0.001,0.291-0.038,0.661-0.213,0.862c-1.704,1.96-3.433,3.899-5.174,5.826c-0.243,0.269-0.599,0.431-0.885,0.665
		c-0.569,0.466-1.123,0.949-1.687,1.421c-0.339,0.284-0.66,0.598-1.032,0.833c-0.938,0.593-0.998,0.976-0.387,1.926
		c0.408,0.634,0.742,1.323,1.039,2.018c0.218,0.511,0.003,0.93-0.534,1.117c-0.531,0.185-0.868-0.111-1.067-0.551
		c-0.336-0.743-0.638-1.502-0.936-2.261c-0.177-0.45-0.411-0.59-0.825-0.253c-0.191,0.155-0.408,0.279-0.617,0.412
		c-0.557,0.356-1.407,0.152-1.663-0.451c-0.074-0.174,0.03-0.478,0.144-0.667c0.984-1.624,1.295-1.429-0.342-3.183
		c-2.704-2.898-5.228-5.938-7.491-9.197c-0.424-0.611-0.45-1.049,0.098-1.526c0.951-0.827,1.897-1.661,2.861-2.471
		c0.122-0.103,0.345-0.085,0.522-0.124c0.01,0.196,0.031,0.392,0.028,0.587c-0.006,0.334-0.145,0.721-0.022,0.993
		c0.902,2.001,1.819,3.998,2.823,5.949C6.813,22.877,7.413,23.026,7.89,23.314z"/>
	<path fill="#FFFFFF" d="M12.404,15.553c-0.6-0.304-1.085-0.574-1.591-0.795c-0.217-0.095-0.479-0.09-0.72-0.131
		c-0.028,0.226-0.103,0.459-0.075,0.678c0.162,1.295,0.392,2.584,0.505,3.883c0.053,0.603-0.157,1.225-0.16,1.839
		c-0.011,1.88,0.019,3.76,0.033,5.64c0.002,0.255,0,0.51-0.119,0.791c-0.491-0.591-0.913-1.157-0.932-1.969
		c-0.069-2.909-0.139-5.819-0.308-8.723c-0.036-0.615-0.447-1.227-0.758-1.801c-0.259-0.479-0.188-1.615,0.383-1.991
		c0.329-0.217,0.914-0.117,1.366-0.046c0.267,0.041,0.512,0.288,0.746,0.469c0.45,0.349,0.918,0.488,1.511,0.432
		c1.111-0.106,1.232,0.056,1.245,1.158c0.017,1.35-0.247,2.706,0.231,4.046c0.184,0.515-0.124,0.985-0.683,1.144
		c-0.619,0.176-0.774,0.578-0.776,1.169c-0.003,0.614-0.152,1.227-0.149,1.841c0.003,0.602,0.017,1.239,0.211,1.797
		c0.202,0.581,0.103,0.885-0.64,1.165c-0.142-1.098-0.336-2.149-0.395-3.207c-0.037-0.657,0.184-1.325,0.187-1.989
		c0.003-0.542-0.164-1.083-0.223-1.627c-0.114-1.059-0.204-2.12-0.308-3.227c0.713,0.238,1.142,0.882,1.063,1.464
		c-0.017,0.122-0.087,0.255-0.058,0.362c0.051,0.184,0.161,0.352,0.247,0.526c0.121-0.152,0.35-0.309,0.344-0.456
		C12.549,17.139,12.462,16.286,12.404,15.553z"/>
	<path fill="#FFFFFF" d="M11.583,0c0.572,0.377,1.289,0.645,1.673,1.162c0.332,0.448,0.391,1.183,0.357,1.779
		c-0.013,0.24-0.565,0.533-0.922,0.656c-1.307,0.448-2.237,1.312-1.33,2.884c0.683,1.183,1.169,2.494,1.628,3.789
		c0.349,0.986-0.029,1.874-0.872,2.466c-0.25,0.175-0.77,0.204-1.045,0.063c-1.187-0.606-1.779-2.115-1.281-3.444
		c0.428-1.142,0.619-2.224,0.374-3.453c-0.259-1.298,0.363-2.17,1.671-2.808c1.119-0.546,1.174-1.186,0.212-1.987
		c-0.286-0.238-0.482-0.585-0.718-0.882C11.413,0.15,11.498,0.075,11.583,0z M11.58,9.375c-0.076,0.013-0.151,0.025-0.227,0.038
		c-0.341,1.155-0.06,2.512,0.773,2.846C11.929,11.223,11.754,10.299,11.58,9.375z"/>
	<path fill="#FFFFFF" d="M7.667,4.421c0.058-0.267,0.085-0.545,0.181-0.797C8.09,2.986,8.415,2.376,8.174,1.647
		C8.143,1.552,8.382,1.366,8.496,1.222c0.13,0.136,0.396,0.313,0.369,0.401C8.57,2.587,8.229,3.537,7.901,4.491
		C7.823,4.468,7.745,4.445,7.667,4.421z"/>
	<path fill="#FFFFFF" d="M5.904,14.186c-0.069-0.358-0.143-0.715-0.19-1.076c-0.002-0.014,0.364-0.096,0.367-0.087
		c0.107,0.35,0.191,0.707,0.279,1.064C6.208,14.12,6.056,14.153,5.904,14.186z"/>
</g>
</svg>
