<?xml version="1.0" encoding="utf-8"?>
<!-- Generator: Adobe Illustrator 17.0.0, SVG Export Plug-In . SVG Version: 6.00 Build 0)  -->
<!DOCTYPE svg PUBLIC "-//W3C//DTD SVG 1.1//EN" "http://www.w3.org/Graphics/SVG/1.1/DTD/svg11.dtd">
<svg version="1.1" id="Capa_1" xmlns="http://www.w3.org/2000/svg" xmlns:xlink="http://www.w3.org/1999/xlink" x="0px" y="0px"
	 width="117.958px" height="20.047px" viewBox="0 0 117.958 20.047" enable-background="new 0 0 117.958 20.047"
	 xml:space="preserve">
<g>
	<path fill="#FFFFFF" d="M9.508,8.042c0.762-0.051,1.529-0.069,2.286-0.162c1.157-0.142,2.305-0.357,3.462-0.495
		c0.41-0.049,0.843,0.101,1.254,0.053c2.062-0.239,4.121-0.513,6.181-0.775c0.085-0.011,0.177-0.008,0.252-0.041
		c1.773-0.775,3.669-0.946,5.561-1.17c1.201-0.142,2.387-0.411,3.584-0.596c1.941-0.3,3.881-0.605,5.829-0.859
		c2.513-0.328,5.032-0.606,7.549-0.908c2.603-0.312,5.208-0.616,7.809-0.944c6.201-0.782,12.435-1.118,18.672-1.437
		c3.246-0.166,6.495-0.297,9.737-0.527c3.673-0.261,7.345-0.185,11.018-0.111c2.72,0.055,5.439,0.187,8.158,0.284
		c-0.002,0.055-0.003,0.11-0.005,0.166c-2.104-0.04-4.207-0.102-6.311-0.114c-2.42-0.014-4.843-0.043-7.261,0.042
		c-4.16,0.145-8.318,0.347-12.475,0.574c-4.242,0.232-8.481,0.522-12.721,0.795c-0.481,0.031-0.958,0.117-1.495,0.185
		c2.049,0.683,2.049,0.683,2.888,0.381c-0.176-0.077-0.295-0.128-0.437-0.19c0.347-0.068,0.68-0.272,0.865,0.258
		c0.036,0.102,0.444,0.073,0.68,0.104c0.002,0.058,0.003,0.117,0.005,0.175c-0.719,0.075-1.437,0.153-2.156,0.225
		c-0.34,0.034-0.683,0.044-1.02,0.097c-0.047,0.007-0.064,0.201-0.112,0.37c-1.697,0.171-3.461,0.349-5.226,0.527
		c-0.008-0.042-0.016-0.083-0.025-0.125c0.394-0.11,0.789-0.221,1.183-0.331c-0.005-0.03-0.01-0.061-0.015-0.091
		c-3.706,0.381-7.412,0.762-11.118,1.143c-0.012-0.034-0.023-0.067-0.035-0.101c0.207-0.082,0.414-0.163,0.62-0.245
		c-0.92-0.233-1.794-0.068-2.664,0.139c-0.726,0.948-1.836,0.658-2.788,0.835c-1.512,0.281-3.04,0.473-4.562,0.697
		c-0.154,0.023-0.313,0.009-0.664,0.016c0.281-0.271,0.423-0.408,0.659-0.636c-1.981,0.064-3.824,0.284-5.68,0.706
		C30.962,6.098,30.933,6.25,30.9,6.425c-1.717,0.317-3.423,0.645-5.134,0.944c-0.98,0.172-1.967,0.305-2.953,0.438
		c-0.184,0.025-0.455,0.038-0.553-0.067c-0.262-0.28-0.56-0.197-0.786-0.086c-1.231,0.599-2.577,0.518-3.877,0.697
		c-0.474,0.065-0.954,0.027-1.347,0.404c-0.119,0.114-0.377,0.089-0.573,0.116C13.306,9.2,10.936,9.524,8.567,9.855
		c-1.35,0.189-2.7,0.383-4.049,0.587c-0.197,0.03-0.384,0.125-0.722,0.24c0.629,0.382,1.092,0.183,1.549,0.101
		c0.979-0.177,1.957-0.364,2.939-0.529c0.249-0.042,0.509-0.016,0.789,0.068c-0.28,0.088-0.553,0.208-0.84,0.257
		c-1.32,0.226-2.639,0.459-3.966,0.633c-0.639,0.084-1.21,0.229-1.712,0.865c0.855-0.116,1.636-0.13,2.362-0.34
		c1.217-0.351,2.457-0.425,3.7-0.558c1.527-0.163,3.048-0.396,4.569-0.615c0.153-0.022,0.288-0.158,0.434-0.235
		c0.123-0.064,0.265-0.19,0.374-0.168c1.108,0.225,2.132-0.264,3.199-0.375c1.976-0.205,3.936-0.554,5.906-0.815
		c0.587-0.078,1.19-0.023,1.777-0.1c0.545-0.071,1.078-0.235,1.616-0.358c0.016,0.061,0.032,0.121,0.047,0.182
		c-0.2,0.054-0.398,0.112-0.599,0.161c-0.235,0.057-0.442,0.136-0.436,0.432c-0.533-0.18-1.033-0.122-1.5,0.193
		c0.499-0.065,0.999-0.13,1.498-0.194c0.748-0.143,1.495-0.297,2.245-0.428c2.161-0.376,4.32-0.774,6.488-1.106
		c2.648-0.406,5.303-0.762,7.957-1.123c2.908-0.396,5.814-0.811,8.729-1.152c3.652-0.427,7.308-0.841,10.97-1.164
		c4.516-0.397,9.039-0.724,13.563-1.028c5.008-0.336,10.02-0.613,15.044-0.477c2.194,0.059,4.389,0.098,6.583,0.186
		c1.161,0.046,2.319,0.178,3.555,0.277c-0.301,0.444-0.662,0.313-0.978,0.302c-1.965-0.074-3.929-0.19-5.895-0.23
		c-2.104-0.043-4.209-0.017-6.314,0.067c2.636,0.132,5.272,0.264,7.908,0.397c-1.518,0.484-3.05,0.187-4.574,0.23
		c-1.867,0.052-3.744-0.055-5.791,0.285c0.697,0.341,1.257,0.184,1.79,0.21c0.597,0.029,1.198-0.006,1.796,0
		c0.568,0.005,1.136,0.032,1.704,0.039c0.599,0.007,1.198,0.001,1.797,0.003c0.57,0.001,1.162-0.09,1.706,0.032
		c0.573,0.128,1.055-0.287,1.647-0.076c0.505,0.18,1.097,0.121,1.652,0.151c0.597,0.032,1.196,0.05,1.794,0.061
		c0.57,0.011,1.141,0.004,1.712,0.011c0.599,0.007,1.198,0.018,1.797,0.034c0.569,0.015,1.139,0.033,1.708,0.06
		c0.598,0.029,1.194,0.076,1.792,0.106c0.567,0.028,1.134,0.046,1.701,0.066c0.598,0.021,1.197,0.042,1.795,0.059
		c0.57,0.016,1.141,0.012,1.711,0.043c0.597,0.033,1.193,0.094,1.789,0.148c0.565,0.052,1.129,0.111,1.84,0.182
		c-2.308,0.046-4.471,0.098-6.635,0.128c-1.226,0.017-2.454-0.034-3.679,0.005c-0.819,0.026-1.634,0.21-2.453,0.226
		c-1.964,0.037-3.93,0.028-5.895,0.016c-2.251-0.014-4.501-0.066-6.751-0.073c-1.339-0.004-2.678,0.048-4.019,0.157
		c1.012,0.035,2.024,0.073,3.036,0.106c2.534,0.082,5.068,0.173,7.603,0.236c0.679,0.017,1.36-0.071,2.04-0.078
		c1.568-0.016,3.139-0.067,4.703,0.003c1.205,0.054,2.404,0.273,3.6,0.473c-5.561,0.222-11.115-0.368-16.674,0.071
		c2.597,0.068,5.193,0.138,7.79,0.205c2.877,0.075,5.756,0.122,8.632,0.234c1.56,0.061,3.115,0.232,4.672,0.348
		c0.283,0.021,0.567,0.018,0.851,0.06c-1.913-0.02-3.826-0.036-5.738-0.06c-3.023-0.038-6.046-0.073-9.068-0.124
		c-1.396-0.023-2.792-0.105-4.189-0.114c-2.109-0.014-4.22-0.019-6.329,0.028c-3.533,0.079-7.055,0.365-10.576,0.655
		c-3.124,0.258-6.253,0.46-9.378,0.719C64.33,8.837,62.4,9.03,60.475,9.259c-1.498,0.178-2.99,0.419-4.48,0.662
		c-2.048,0.333-4.134,0.282-6.179,0.631c-1.066,0.182-2.12,0.444-3.19,0.589c-2.452,0.331-4.919,0.554-7.364,0.928
		c-4.162,0.636-8.343,1.172-12.457,2.096c-1.196,0.269-2.386,0.564-3.585,0.816c-1.641,0.346-3.289,0.658-4.933,0.992
		c-0.977,0.199-1.944,0.445-2.926,0.613c-1.373,0.236-2.754,0.429-4.134,0.624c-1.123,0.159-2.25,0.293-3.362,0.572
		c0.935-0.101,1.871-0.192,2.804-0.307c0.817-0.101,1.629-0.231,2.444-0.344c0.507-0.071,1.013-0.159,1.522-0.195
		c0.62-0.044,1.25,0.012,1.864-0.068c1.355-0.177,2.709-0.373,4.05-0.633c2.069-0.401,4.122-0.883,6.189-1.288
		c0.945-0.185,1.911-0.263,2.866-0.404c0.45-0.066,0.898-0.154,1.343-0.253c0.383-0.085,0.726-0.067,1.072,0.312
		c-0.219,0.087-0.38,0.18-0.554,0.215c-3.128,0.633-6.252,1.281-9.387,1.877c-1.651,0.314-3.323,0.515-4.979,0.81
		c-0.637,0.113-1.248,0.362-1.878,0.519c-0.441,0.11-0.892,0.191-1.343,0.247c-2.007,0.25-4.02,0.454-6.021,0.738
		c-1.944,0.275-3.877,0.627-5.814,0.945c-0.167,0.027-0.334,0.05-0.627,0.093c0.019-0.281,0.033-0.504,0.05-0.765
		c-0.103-0.049-0.256-0.122-0.409-0.194c0.004-0.049,0.007-0.099,0.011-0.148c1.725-0.277,3.451-0.553,5.176-0.83
		c-0.009-0.059-0.018-0.118-0.027-0.176c-1.193,0.173-2.386,0.344-3.579,0.518c-0.422,0.062-0.847,0.115-1.265,0.198
		c-0.299,0.06-0.644-0.091-0.622-0.284c0.06-0.536-0.532-0.888-0.31-1.47c0.091-0.24-0.092-0.585-0.168-0.971
		c0.434-0.134,0.845-0.262,1.341-0.415c-0.429-0.057-0.778-0.052-1.087-0.161C0.322,15.276,0.174,15.041,0,14.878
		c0.199-0.127,0.382-0.299,0.599-0.37c0.512-0.168,1.035-0.316,1.563-0.421c0.803-0.159,1.613-0.276,2.421-0.408
		c0.196-0.032,0.397-0.039,0.591-0.078c1.278-0.257,2.555-0.52,3.831-0.799c-2.962,0.211-5.85,1.029-8.839,1.207
		c-0.042-0.372,0.793-0.11,0.278-0.716c0.612-0.117,1.158-0.221,1.725-0.33c-0.057-0.027-0.116-0.055-0.296-0.141
		c2.225-0.379,4.348-0.741,6.47-1.103c-0.006-0.036-0.011-0.071-0.017-0.107c-2.416,0.29-4.832,0.581-7.175,0.862
		c-0.364-0.279-0.696-0.534-1.088-0.835c0.945-0.652,2.129-0.148,2.901-1.002c-0.967,0.173-1.934,0.346-2.899,0.519
		c-0.144-0.794-0.06-0.983,0.686-1.133c1.255-0.253,2.521-0.451,3.783-0.671C5.209,9.235,5.879,9.1,6.556,9.009
		c1.551-0.21,3.107-0.387,4.659-0.597c1.176-0.16,2.347-0.35,3.508-0.608c-1.633,0.149-3.266,0.291-4.897,0.451
		C9.205,8.316,8.588,8.418,7.97,8.504C7.618,8.553,7.433,8.399,7.387,7.961c1.785-0.423,3.636-0.375,5.444-0.634
		C11.883,7.471,10.934,7.605,9.99,7.77C9.822,7.799,9.676,7.953,9.518,8.048c-0.322-0.029-0.641-0.056-0.96-0.083
		c0,0.067,0,0.134,0,0.201C8.875,8.125,9.191,8.084,9.508,8.042z M18.023,11.508c-0.386-0.033-0.773-0.067-1.159-0.1
		c0.047,0.125,0.099,0.155,0.15,0.153c0.336-0.014,0.673-0.035,1.009-0.054c0.792-0.137,1.583-0.275,2.375-0.412
		c0.944-0.169,1.888-0.337,2.832-0.506c-0.904,0.013-1.785,0.162-2.662,0.324c-0.065,0.012-0.114,0.118-0.175,0.179
		c-0.692,0.051-1.385,0.091-2.075,0.163C18.213,11.266,18.122,11.421,18.023,11.508z M18.939,10.261
		c0.61-0.187,1.221-0.375,1.831-0.562c-1.443,0.349-3.02,0.067-4.362,0.903c0.877,0.062,1.737,0.031,2.552-0.357
		c0.253,0.02,0.506,0.041,0.759,0.061c-0.002-0.055-0.003-0.111-0.005-0.166C19.456,10.181,19.198,10.221,18.939,10.261z
		 M53.926,2.785c-0.013-0.076-0.026-0.152-0.039-0.228c-1.262,0.167-2.526,0.326-3.786,0.509c-0.215,0.031-0.426,0.146-0.618,0.257
		c-0.056,0.033-0.04,0.189-0.057,0.288c0.461-0.48,0.974-0.415,1.537-0.326c-0.085,0.164-0.136,0.263-0.203,0.393
		c1.843,0.025,3.059-0.165,3.75-0.668c-0.639,0.068-1.278,0.136-1.917,0.204c-0.008-0.058-0.017-0.115-0.025-0.173
		C53.022,2.956,53.474,2.871,53.926,2.785z M13.107,11.101c-0.007-0.046-0.014-0.091-0.022-0.137
		c-0.552,0.089-1.105,0.177-1.657,0.266c0.007,0.043,0.014,0.086,0.02,0.13C12.002,11.273,12.555,11.187,13.107,11.101z
		 M27.367,9.497c0.009,0.049,0.018,0.097,0.027,0.146c0.419-0.074,0.838-0.147,1.257-0.221c-0.01-0.056-0.021-0.113-0.031-0.169
		C28.203,9.334,27.785,9.415,27.367,9.497z M6.13,16.87c0.007,0.045,0.015,0.09,0.022,0.136c0.342-0.057,0.684-0.113,1.027-0.17
		c-0.006-0.037-0.012-0.074-0.019-0.111C6.817,16.773,6.474,16.822,6.13,16.87z M55.92,3.191c-0.005-0.071-0.01-0.142-0.015-0.213
		c-0.232,0.048-0.511-0.122-0.775,0.282C55.458,3.231,55.689,3.211,55.92,3.191z M86.087,6.724c0-0.013-0.001-0.026-0.001-0.039
		c-0.303,0.006-0.605,0.012-0.908,0.018c0,0.013,0.001,0.026,0.001,0.039C85.482,6.736,85.785,6.73,86.087,6.724z M31.951,5.328
		c0.488,0.09,0.488,0.09,0.829-0.163C32.469,5.226,32.21,5.277,31.951,5.328z M42.504,4.47c0.249,0.233,0.428,0.247,0.504-0.151
		C42.788,4.385,42.646,4.428,42.504,4.47z M59.757,2.812c0.012-0.057,0.023-0.114,0.035-0.171c-0.307,0.025-0.614,0.051-0.922,0.076
		c0.002,0.037,0.004,0.075,0.006,0.112C59.17,2.824,59.464,2.818,59.757,2.812z M15.858,11.76c-0.009-0.036-0.018-0.073-0.027-0.109
		c-0.231,0.068-0.463,0.137-0.694,0.205c0.006,0.025,0.011,0.05,0.017,0.074C15.388,11.874,15.623,11.817,15.858,11.76z
		 M2.08,15.362c0.003,0.023,0.006,0.047,0.009,0.07c0.102-0.002,0.204,0.002,0.304-0.008c0.082-0.008,0.166-0.021,0.242-0.05
		c0.069-0.026,0.129-0.075,0.193-0.114c-0.017-0.021-0.035-0.042-0.052-0.064C2.544,15.251,2.312,15.307,2.08,15.362z M9.847,11.427
		c0.004,0.046,0.008,0.092,0.012,0.138c0.233-0.016,0.465-0.032,0.698-0.047c-0.005-0.053-0.009-0.106-0.014-0.159
		C10.311,11.382,10.079,11.404,9.847,11.427z M4.464,17.408c-0.001-0.015-0.001-0.029-0.002-0.044
		c-0.22,0.004-0.44,0.009-0.659,0.013c0.001,0.015,0.001,0.029,0.002,0.044C4.024,17.417,4.244,17.413,4.464,17.408z M25.308,7.156
		c-0.023-0.053-0.045-0.107-0.068-0.16c-0.17,0.066-0.341,0.131-0.511,0.197c0.024,0.059,0.048,0.118,0.072,0.177
		C24.97,7.299,25.139,7.228,25.308,7.156z M48.11,3.835c0.004,0.055,0.008,0.109,0.012,0.164c0.152-0.01,0.304-0.019,0.456-0.029
		c-0.004-0.056-0.008-0.112-0.012-0.169C48.414,3.812,48.262,3.823,48.11,3.835z M57.599,2.823c0.007,0.067,0.015,0.135,0.022,0.202
		c0.133-0.035,0.266-0.069,0.399-0.104c-0.008-0.045-0.016-0.089-0.024-0.134C57.864,2.799,57.731,2.811,57.599,2.823z
		 M34.107,8.434c-0.002-0.026-0.004-0.052-0.006-0.079c-0.183,0.016-0.366,0.032-0.549,0.049c0.001,0.014,0.001,0.027,0.002,0.041
		C33.738,8.441,33.923,8.438,34.107,8.434z M25.758,6.597c-0.016-0.036-0.032-0.071-0.048-0.107
		c-0.123,0.056-0.245,0.112-0.368,0.168c0.016,0.035,0.031,0.069,0.047,0.104C25.512,6.707,25.635,6.652,25.758,6.597z
		 M30.134,5.783c0-0.015,0-0.031-0.001-0.046c-0.146,0.003-0.292,0.006-0.438,0.009c0,0.015,0,0.031,0.001,0.046
		C29.841,5.789,29.987,5.786,30.134,5.783z M67.992,7.881c0.002,0.026,0.003,0.052,0.005,0.078c0.11-0.009,0.22-0.018,0.33-0.027
		c-0.002-0.019-0.004-0.038-0.006-0.057C68.211,7.877,68.102,7.879,67.992,7.881z"/>
	<path fill="#FFFFFF" d="M35.711,14.04c1.375-0.503,2.761-0.922,4.238-1.061c1.271-0.12,2.521-0.447,3.789-0.62
		c1.579-0.215,3.167-0.365,4.75-0.544c0.311-0.035,0.626-0.051,0.932-0.111c3.639-0.721,7.327-1.076,11.013-1.421
		c2.012-0.189,4.036-0.249,6.052-0.389c2.246-0.156,4.49-0.341,6.736-0.506c0.935-0.069,1.871-0.146,2.808-0.168
		c0.354-0.008,0.712,0.131,1.089,0.31c-0.3,0.04-0.598,0.095-0.899,0.117c-3.609,0.263-7.221,0.49-10.827,0.79
		c-2.64,0.22-5.274,0.51-7.906,0.815c-2.717,0.314-5.429,0.675-8.142,1.031c-2.739,0.36-5.476,0.738-8.214,1.109
		c-1.553,0.21-3.105,0.426-4.659,0.63C36.222,14.054,35.965,14.035,35.711,14.04z"/>
	<path fill="#FFFFFF" d="M96.552,3.973c0.23-0.046,0.462-0.138,0.691-0.132c1.958,0.048,3.917,0.092,5.874,0.18
		c1.84,0.083,3.677,0.218,5.513,0.388c-4.022,0.027-8.04-0.066-12.057-0.219C96.567,4.117,96.56,4.045,96.552,3.973z"/>
	<path fill="#FFFFFF" d="M46.721,5.408c-0.238,0.423-0.679,0.365-1.054,0.416c-2.56,0.347-5.123,0.674-7.684,1.013
		c-0.775,0.103-1.547,0.224-2.366,0.191c0.046-0.052,0.088-0.144,0.14-0.151c3.375-0.457,6.751-0.907,10.126-1.358
		c0.28-0.037,0.56-0.074,0.841-0.111L46.721,5.408z"/>
	<path fill="#FFFFFF" d="M51.892,4.941c1.387-0.54,10.973-1.431,11.973-1.244C59.874,4.112,55.883,4.527,51.892,4.941z"/>
	<path fill="#FFFFFF" d="M74.16,3.057c-1.771,0.113-3.541,0.226-5.312,0.34c-0.003-0.045-0.006-0.089-0.009-0.134
		c1.769-0.14,3.538-0.279,5.306-0.419C74.151,2.915,74.156,2.986,74.16,3.057z"/>
	<path fill="#FFFFFF" d="M106.957,0.739c-1.747-0.049-3.495-0.099-5.242-0.148c0.001-0.049,0.003-0.097,0.004-0.146
		c1.755,0.053,3.511,0.105,5.266,0.158C106.975,0.649,106.966,0.694,106.957,0.739z"/>
	<path fill="#FFFFFF" d="M19.521,8.749C18.33,8.955,17.139,9.16,15.803,9.39C16.412,8.992,18.253,8.679,19.521,8.749z"/>
	<path fill="#FFFFFF" d="M46.724,5.41c1.407-0.155,2.814-0.31,4.22-0.465c-1.398,0.241-2.77,0.731-4.222,0.463
		C46.721,5.408,46.724,5.41,46.724,5.41z"/>
	<path fill="#FFFFFF" d="M86.351,1.455c0.739-0.077,1.478-0.154,2.216-0.231c0.008,0.076,0.016,0.152,0.024,0.228
		C87.87,1.73,87.11,1.675,86.36,1.707C86.357,1.623,86.354,1.539,86.351,1.455z"/>
	<path fill="#FFFFFF" d="M78.043,2.821c-1.077,0.021-2.154,0.043-3.116,0.062c0.2-0.109,0.2-0.108,0.821-0.129
		c0.394-0.013,0.789-0.026,1.183-0.047c0.362-0.02,0.723-0.051,1.084-0.077C78.025,2.694,78.034,2.757,78.043,2.821z"/>
	<path fill="#FFFFFF" d="M106.316,2.533c-0.811-0.035-1.622-0.069-2.416-0.103C105.216,2.13,105.866,2.122,106.316,2.533z"/>
	<path fill="#FFFFFF" d="M80.411,2.469c0.974-0.019,1.949-0.039,2.923-0.058c0.001,0.029,0.003,0.058,0.004,0.087
		c-0.974,0.019-1.948,0.039-2.922,0.058C80.414,2.528,80.413,2.499,80.411,2.469z"/>
	<path fill="#FFFFFF" d="M43.515,5.176c0.676-0.046,1.352-0.092,2.028-0.138c0.005,0.022,0.01,0.044,0.015,0.066
		c-0.33,0.073-0.657,0.165-0.99,0.212c-0.344,0.049-0.694,0.054-1.041,0.078C43.523,5.321,43.519,5.248,43.515,5.176z"/>
	<path fill="#FFFFFF" d="M80.233,8.991c-0.373,0.349-0.784,0.332-1.216,0.105C79.422,9.061,79.827,9.026,80.233,8.991z"/>
	<path fill="#FFFFFF" d="M65.588,1.949c0.41-0.008,0.77-0.015,1.157-0.023C66.276,2.198,66.276,2.198,65.588,1.949z"/>
	<path fill="#FFFFFF" d="M109.521,0.759c-0.496,0.01-0.992,0.02-1.488,0.03c0-0.017,0-0.035,0-0.052
		c0.496-0.01,0.992-0.02,1.487-0.03C109.521,0.724,109.521,0.741,109.521,0.759z"/>
	<path fill="#FFFFFF" d="M1.799,9.378c0.48-0.09,0.961-0.181,1.441-0.271C3.25,9.154,3.261,9.2,3.272,9.247
		C2.799,9.358,2.325,9.47,1.852,9.581C1.834,9.513,1.816,9.446,1.799,9.378z"/>
	<path fill="#FFFFFF" d="M101.841,1.232c0.249,0.011,0.497,0.022,0.746,0.033c-0.003,0.03-0.006,0.061-0.008,0.091
		c-0.249,0.005-0.497,0.01-0.746,0.015C101.835,1.325,101.838,1.278,101.841,1.232z"/>
	<path fill="#FFFFFF" d="M34.714,7.225c-0.39,0.061-0.78,0.122-1.169,0.182c-0.006-0.037-0.011-0.073-0.017-0.11
		c0.39-0.056,0.781-0.112,1.171-0.168C34.704,7.161,34.709,7.193,34.714,7.225z"/>
	<path fill="#FFFFFF" d="M66.772,3.512c-0.412,0.008-0.824,0.016-1.237,0.025c-0.001-0.018-0.001-0.036-0.002-0.054
		c0.412-0.008,0.824-0.016,1.236-0.025C66.771,3.476,66.771,3.494,66.772,3.512z"/>
	<path fill="#FFFFFF" d="M13.874,6.821c-0.369,0.007-0.738,0.015-1.108,0.022c-0.002-0.02-0.004-0.04-0.007-0.061
		c0.369-0.032,0.738-0.063,1.106-0.095C13.869,6.732,13.872,6.776,13.874,6.821z"/>
	<path fill="#FFFFFF" d="M55.32,3.949c-0.193,0.042-0.386,0.084-0.579,0.127c-0.011-0.049-0.021-0.098-0.032-0.147
		c0.195-0.034,0.39-0.067,0.584-0.101C55.303,3.868,55.312,3.908,55.32,3.949z"/>
	<path fill="#FFFFFF" d="M54.026,4.12c-0.232,0.042-0.463,0.083-0.695,0.125c-0.008-0.059-0.017-0.117-0.025-0.176
		c0.234-0.018,0.468-0.035,0.702-0.053C54.014,4.051,54.02,4.085,54.026,4.12z"/>
	<path fill="#FFFFFF" d="M117.148,7.777c0.27-0.005,0.54-0.011,0.811-0.016c0,0.014-0.001,0.029-0.001,0.043
		c-0.271,0.005-0.543,0.011-0.814,0.016C117.145,7.806,117.146,7.791,117.148,7.777z"/>
	<path fill="#FFFFFF" d="M13.919,7.077c0.196-0.004,0.392-0.008,0.589-0.012c0,0.011,0,0.022,0.001,0.032
		c-0.196,0.004-0.392,0.008-0.589,0.012C13.919,7.099,13.919,7.088,13.919,7.077z"/>
	<path fill="#FFFFFF" d="M29.337,8.151c-0.178,0.031-0.356,0.062-0.535,0.093c-0.008-0.023-0.016-0.046-0.024-0.07
		c0.091-0.025,0.182-0.052,0.274-0.076c0.087-0.022,0.175-0.041,0.263-0.061C29.322,8.076,29.33,8.113,29.337,8.151z"/>
	<path fill="#FFFFFF" d="M79.015,2.561c0.12-0.015,0.239-0.03,0.359-0.045c0.006,0.037,0.012,0.074,0.018,0.111
		c-0.119,0.022-0.238,0.043-0.356,0.065C79.029,2.648,79.022,2.605,79.015,2.561z"/>
	<path fill="#FFFFFF" d="M6.228,7.385c0.218-0.054,0.436-0.108,0.654-0.162c0.01,0.041,0.019,0.081,0.029,0.122
		c-0.219,0.05-0.438,0.101-0.656,0.151C6.246,7.459,6.237,7.422,6.228,7.385z"/>
	<path fill="#FFFFFF" d="M114.344,7.869c-0.162,0.003-0.325,0.006-0.487,0.01c0-0.02-0.001-0.041-0.001-0.061
		c0.162-0.003,0.325-0.006,0.487-0.01C114.343,7.828,114.343,7.848,114.344,7.869z"/>
	<path fill="#FFFFFF" d="M52.662,4.315c-0.186,0.015-0.373,0.031-0.559,0.046c-0.001-0.033-0.003-0.065-0.004-0.098
		c0.187-0.004,0.373-0.007,0.56-0.011C52.66,4.273,52.661,4.294,52.662,4.315z"/>
	<path fill="#FFFFFF" d="M58.675,0.153c0.227-0.019,0.454-0.038,0.681-0.056c0.003,0.042,0.006,0.084,0.009,0.127
		c-0.227,0.005-0.454,0.009-0.682,0.014C58.68,0.209,58.677,0.181,58.675,0.153z"/>
	<path fill="#FFFFFF" d="M62.343,2.333c-0.095,0.019-0.19,0.044-0.286,0.049c-0.015,0.001-0.036-0.088-0.054-0.135
		c0.098-0.028,0.195-0.055,0.293-0.083C62.312,2.221,62.328,2.277,62.343,2.333z"/>
	<path fill="#FFFFFF" d="M70.475,2.708c0.126-0.032,0.252-0.066,0.379-0.092c0.004-0.001,0.025,0.083,0.038,0.128
		c-0.129,0.01-0.258,0.02-0.387,0.03C70.495,2.753,70.485,2.73,70.475,2.708z"/>
	<path fill="#FFFFFF" d="M32.949,5.992c0.133-0.003,0.265-0.005,0.398-0.008c0.001,0.017,0.001,0.035,0.002,0.052
		c-0.133,0.003-0.266,0.005-0.399,0.008C32.95,6.027,32.95,6.009,32.949,5.992z"/>
	<path fill="#FFFFFF" d="M109.077,6.742c0.079-0.002,0.159-0.003,0.239-0.005c-0.082,0.013-0.165,0.025-0.247,0.038
		C109.071,6.764,109.074,6.753,109.077,6.742z"/>
	<path fill="#FFFFFF" d="M96.022,2.417c0.039,0.02,0.077,0.04,0.114,0.059c-0.038,0.03-0.073,0.076-0.116,0.086
		c-0.034,0.008-0.078-0.029-0.118-0.046C95.943,2.483,95.983,2.45,96.022,2.417z"/>
	<path fill="#FFFFFF" d="M53.926,2.785c-0.452,0.086-0.905,0.171-1.357,0.257c0.008,0.058,0.017,0.115,0.025,0.173
		c0.639-0.068,1.278-0.136,1.917-0.204c-0.692,0.504-1.908,0.693-3.75,0.668c0.067-0.13,0.118-0.229,0.203-0.393
		c-0.563-0.089-1.076-0.154-1.537,0.326c0.017-0.1,0.001-0.256,0.057-0.288c0.192-0.112,0.402-0.226,0.618-0.257
		c1.26-0.183,2.524-0.342,3.786-0.509C53.9,2.633,53.913,2.709,53.926,2.785z"/>
	<path fill="#FFFFFF" d="M18.952,10.252c-0.807,0.382-1.667,0.412-2.544,0.351c1.342-0.837,2.919-0.555,4.362-0.903
		c-0.61,0.187-1.221,0.375-1.831,0.562L18.952,10.252z"/>
	<path fill="#FFFFFF" d="M20.398,11.094c0.056-0.062,0.104-0.169,0.17-0.181c0.878-0.162,1.758-0.311,2.662-0.324
		c-0.944,0.169-1.888,0.337-2.836,0.505C20.392,11.093,20.398,11.094,20.398,11.094z"/>
	<path fill="#FFFFFF" d="M13.107,11.101c-0.553,0.086-1.106,0.172-1.659,0.258c-0.007-0.043-0.014-0.086-0.02-0.13
		c0.552-0.089,1.105-0.177,1.657-0.266C13.093,11.009,13.1,11.055,13.107,11.101z"/>
	<path fill="#FFFFFF" d="M18.025,11.509c0.097-0.088,0.188-0.243,0.293-0.254c0.69-0.072,1.383-0.112,2.078-0.162
		c0.003,0.001-0.004,0-0.001,0.001c-0.788,0.138-1.58,0.276-2.372,0.413L18.025,11.509z"/>
	<path fill="#FFFFFF" d="M27.367,9.497c0.418-0.082,0.835-0.163,1.253-0.245c0.01,0.056,0.021,0.113,0.031,0.169
		c-0.419,0.074-0.838,0.147-1.257,0.221C27.386,9.594,27.376,9.545,27.367,9.497z"/>
	<path fill="#FFFFFF" d="M25.502,9.29c-0.499,0.065-0.999,0.13-1.498,0.194c0.467-0.315,0.967-0.373,1.5-0.193
		C25.505,9.292,25.502,9.29,25.502,9.29z"/>
	<path fill="#FFFFFF" d="M6.13,16.87c0.343-0.048,0.687-0.096,1.03-0.145c0.006,0.037,0.012,0.074,0.019,0.111
		c-0.342,0.057-0.684,0.113-1.027,0.17C6.145,16.96,6.138,16.915,6.13,16.87z"/>
	<path fill="#FFFFFF" d="M55.92,3.191c-0.231,0.02-0.462,0.04-0.789,0.068c0.264-0.403,0.542-0.234,0.775-0.282
		C55.91,3.048,55.915,3.12,55.92,3.191z"/>
	<path fill="#FFFFFF" d="M86.087,6.724c-0.303,0.006-0.605,0.012-0.908,0.018c0-0.013-0.001-0.026-0.001-0.039
		c0.303-0.006,0.605-0.012,0.908-0.018C86.086,6.698,86.087,6.711,86.087,6.724z"/>
	<path fill="#FFFFFF" d="M31.951,5.328c0.259-0.051,0.518-0.102,0.829-0.163C32.439,5.417,32.439,5.417,31.951,5.328z"/>
	<path fill="#FFFFFF" d="M42.504,4.47c0.142-0.043,0.284-0.085,0.504-0.151C42.932,4.717,42.753,4.703,42.504,4.47z"/>
	<path fill="#FFFFFF" d="M59.757,2.812c-0.293,0.006-0.587,0.012-0.881,0.017c-0.002-0.037-0.004-0.075-0.006-0.112
		c0.307-0.026,0.614-0.051,0.922-0.076C59.781,2.698,59.769,2.755,59.757,2.812z"/>
	<path fill="#FFFFFF" d="M15.858,11.76c-0.235,0.057-0.47,0.113-0.704,0.17c-0.006-0.025-0.011-0.05-0.017-0.074
		c0.231-0.068,0.463-0.137,0.694-0.205C15.84,11.688,15.849,11.724,15.858,11.76z"/>
	<path fill="#FFFFFF" d="M2.08,15.362c0.232-0.055,0.464-0.11,0.697-0.165c0.017,0.021,0.035,0.042,0.052,0.064
		c-0.064,0.039-0.124,0.089-0.193,0.114c-0.076,0.028-0.16,0.042-0.242,0.05c-0.101,0.009-0.203,0.006-0.304,0.008
		C2.086,15.408,2.083,15.385,2.08,15.362z"/>
	<path fill="#FFFFFF" d="M18.023,11.507c-0.336,0.019-0.672,0.04-1.009,0.054c-0.051,0.002-0.103-0.028-0.15-0.153
		c0.386,0.033,0.773,0.067,1.16,0.101C18.025,11.509,18.023,11.507,18.023,11.507z"/>
	<path fill="#FFFFFF" d="M9.847,11.427c0.232-0.023,0.464-0.046,0.696-0.068c0.005,0.053,0.009,0.106,0.014,0.159
		c-0.233,0.016-0.465,0.032-0.698,0.047C9.856,11.519,9.852,11.473,9.847,11.427z"/>
	<path fill="#FFFFFF" d="M4.464,17.408c-0.22,0.004-0.44,0.009-0.659,0.013c-0.001-0.015-0.001-0.029-0.002-0.044
		c0.22-0.004,0.44-0.009,0.659-0.013C4.463,17.379,4.463,17.394,4.464,17.408z"/>
	<path fill="#FFFFFF" d="M25.308,7.156C25.139,7.228,24.97,7.299,24.8,7.371c-0.024-0.059-0.048-0.118-0.072-0.177
		c0.17-0.066,0.341-0.131,0.511-0.197C25.263,7.05,25.286,7.103,25.308,7.156z"/>
	<path fill="#FFFFFF" d="M48.11,3.835c0.152-0.011,0.304-0.022,0.456-0.033c0.004,0.056,0.008,0.112,0.012,0.169
		c-0.152,0.01-0.304,0.019-0.456,0.029C48.117,3.944,48.114,3.889,48.11,3.835z"/>
	<path fill="#FFFFFF" d="M57.599,2.823c0.132-0.012,0.265-0.024,0.397-0.035c0.008,0.045,0.016,0.089,0.024,0.134
		c-0.133,0.035-0.266,0.069-0.399,0.104C57.614,2.958,57.606,2.89,57.599,2.823z"/>
	<path fill="#FFFFFF" d="M9.508,8.042c-0.317,0.041-0.634,0.083-0.95,0.124c0-0.067,0-0.134,0-0.201
		c0.319,0.027,0.638,0.054,0.96,0.083C9.521,8.05,9.508,8.042,9.508,8.042z"/>
	<path fill="#FFFFFF" d="M34.107,8.434c-0.184,0.004-0.369,0.007-0.553,0.011c-0.001-0.014-0.001-0.027-0.002-0.041
		c0.183-0.016,0.366-0.032,0.549-0.049C34.103,8.382,34.105,8.408,34.107,8.434z"/>
	<path fill="#FFFFFF" d="M25.758,6.597c-0.123,0.055-0.246,0.11-0.369,0.165c-0.016-0.035-0.031-0.069-0.047-0.104
		c0.123-0.056,0.245-0.112,0.368-0.168C25.726,6.526,25.742,6.562,25.758,6.597z"/>
	<path fill="#FFFFFF" d="M30.134,5.783c-0.146,0.003-0.292,0.006-0.438,0.009c0-0.015,0-0.031-0.001-0.046
		c0.146-0.003,0.292-0.006,0.438-0.009C30.133,5.753,30.133,5.768,30.134,5.783z"/>
	<path fill="#FFFFFF" d="M67.992,7.881c0.11-0.002,0.219-0.004,0.329-0.007c0.002,0.019,0.004,0.038,0.006,0.057
		c-0.11,0.009-0.22,0.018-0.33,0.027C67.995,7.933,67.994,7.907,67.992,7.881z"/>
	<path fill="#FFFFFF" d="M18.939,10.261c0.258-0.04,0.517-0.081,0.775-0.121c0.002,0.055,0.003,0.111,0.005,0.166
		c-0.253-0.02-0.506-0.041-0.763-0.058C18.952,10.252,18.939,10.261,18.939,10.261z"/>
</g>
</svg>
