<?xml version="1.0" encoding="utf-8"?>
<!-- Generator: Adobe Illustrator 17.0.0, SVG Export Plug-In . SVG Version: 6.00 Build 0)  -->
<!DOCTYPE svg PUBLIC "-//W3C//DTD SVG 1.1//EN" "http://www.w3.org/Graphics/SVG/1.1/DTD/svg11.dtd">
<svg version="1.1" id="Capa_1" xmlns="http://www.w3.org/2000/svg" xmlns:xlink="http://www.w3.org/1999/xlink" x="0px" y="0px"
	 width="29.921px" height="28.56px" viewBox="0 0 29.921 28.56" enable-background="new 0 0 29.921 28.56" xml:space="preserve">
<g>
	<g>
		<path fill="#FFFFFF" d="M20.693,28.56H9.228C4.14,28.56,0,24.419,0,19.331V9.228C0,4.14,4.14,0,9.228,0h11.465
			c5.088,0,9.228,4.14,9.228,9.228v10.103C29.921,24.419,25.781,28.56,20.693,28.56z M9.228,2.051c-3.958,0-7.177,3.22-7.177,7.177
			v10.103c0,3.958,3.22,7.177,7.177,7.177h11.465c3.957,0,7.177-3.22,7.177-7.177V9.228c0-3.958-3.22-7.177-7.177-7.177H9.228z"/>
	</g>
	<g>
		<path fill="#FFFFFF" d="M14.961,22.494c-4.53,0-8.214-3.685-8.214-8.214c0-4.53,3.684-8.214,8.214-8.214
			c4.529,0,8.214,3.684,8.214,8.214C23.175,18.809,19.49,22.494,14.961,22.494z M14.961,8.116c-3.399,0-6.164,2.765-6.164,6.164
			c0,3.398,2.765,6.163,6.164,6.163c3.398,0,6.163-2.765,6.163-6.163C21.124,10.881,18.359,8.116,14.961,8.116z"/>
	</g>
	<g>
		<circle fill="#FFFFFF" cx="23.049" cy="6.318" r="1.704"/>
	</g>
</g>
</svg>
